<svg id="Layer_3" enable-background="new 0 0 64 64" height="512" viewBox="0 0 64 64" width="512" xmlns="http://www.w3.org/2000/svg"><path d="m58.847 45.458-6.953-13.905c-.065-.129-.157-.243-.27-.333l-3.423-2.739 1.922-.481h1.877c6.065 0 11-4.935 11-11 0-.347-.18-.668-.474-.851-.295-.182-.663-.198-.973-.044l-1.95.975c-2.512 1.256-5.323 1.92-8.131 1.92-1.463 0-2.928-.346-4.236-1-2.617-1.309-5.855-1.309-8.473 0l-.422.211c-1.031.516-2.187.789-3.341.789h-4.533c-2.061-1.293-4.456-2-6.931-2-2.501 0-4.536 2.035-4.536 4.536 0 1.211.472 2.351 1.329 3.207l.645.645-4.613 3.845 1.28 1.536 4.786-3.988c2.368 2.074 5.367 3.219 8.573 3.219l-.029-2c-2.938 0-5.701-1.144-7.778-3.222l-1.45-1.45c-.479-.478-.743-1.115-.743-1.792 0-.169.018-.334.05-.494 3.152.202 6.09 1.513 8.344 3.766l.899.899 1.414-1.414-.899-.899c-2.268-2.269-5.14-3.704-8.249-4.193.307-.129.645-.201 1.002-.201 2.624 0 5.166.94 7.159 2.648l.821.704c1.992 1.708 4.535 2.648 7.158 2.648h.301v-2h-.301c-2.056 0-4.047-.713-5.644-2h1.945c1.463 0 2.928-.346 4.236-1l.422-.211c2.064-1.032 4.619-1.032 6.684 0 1.584.792 3.358 1.211 5.13 1.211 3.117 0 6.237-.737 9.025-2.13l.342-.171c-.796 4.153-4.457 7.301-8.839 7.301h-2c-.082 0-.163.01-.243.03l-4 1c-.369.092-.653.386-.734.757-.081.372.056.757.353.994l4.828 3.863 6.902 13.804c.032.062.07.122.114.178l3.688 4.61c-.537 1.987-1.558 3.8-2.937 5.321l-3.935-3.935c.177-.923.99-1.622 1.964-1.622v-2c-2.206 0-4 1.794-4 4 0 .266.105.52.293.707l4.293 4.293-2.414 2.414c-.379.378-.881.586-1.415.586h-.257c-.626 0-1.224-.299-1.6-.8l-2.1-2.8c-.147-.197-.362-.333-.604-.381l-.376-.075c-5.85-1.17-11.042-4.728-14.246-9.762l-1.73-2.72-1.688 1.074 1.73 2.72c.966 1.518 2.103 2.907 3.37 4.158-2.105 2.514-3.256 5.652-3.256 8.971v1.615h2v-1.615c0-2.815.963-5.48 2.732-7.622 3.059 2.557 6.739 4.352 10.696 5.143l1.872 2.494c.751 1.001 1.947 1.6 3.2 1.6h.257c1.068 0 2.072-.416 2.829-1.172l3.379-3.379c1.922-1.921 3.286-4.331 3.946-6.969l.06-.238c.076-.303.005-.623-.189-.867z"/><path d="m47.555 34.168-1.488-.992c-1.154-.769-2.497-1.176-3.884-1.176h-.366c-.991 0-1.95-.291-2.774-.84l-1.488-.992-1.109 1.664 1.297.864c-.474.669-.743 1.469-.743 2.304 0 2.206 1.794 4 4 4s4-1.794 4-4c0-.046-.007-.091-.009-.138l1.454.97zm-6.555 2.832c-1.103 0-2-.897-2-2 0-.522.212-1.012.571-1.383.72.245 1.474.383 2.246.383h.366c.191 0 .38.02.568.042.16.292.249.621.249.958 0 1.103-.897 2-2 2z"/><path d="m7 11h-2.755l6.755-7.505 6.755 7.505h-2.755c-.552 0-1 .448-1 1v25h2v-24h4c.395 0 .753-.232.914-.593s.094-.782-.17-1.076l-9-10c-.379-.422-1.107-.422-1.486 0l-9 10c-.264.293-.331.715-.17 1.076s.517.593.912.593h4v40h2v-41c0-.552-.448-1-1-1z"/><path d="m10 12h2v33h-2z"/><path d="m21.743 40.331c-.379-.422-1.107-.422-1.486 0l-9 10c-.264.294-.331.715-.17 1.076.16.361.518.593.913.593h4v11h2v-12c0-.553-.448-1-1-1h-2.755l6.755-7.505 6.755 7.505h-2.755c-.552 0-1 .447-1 1v6h2v-5h4c.395 0 .753-.232.914-.593s.094-.782-.17-1.076z"/><path d="m20 51h2v10h-2z"/></svg>