<?xml version="1.0" encoding="UTF-8"?> <!-- Generator: Adobe Illustrator 23.0.3, SVG Export Plug-In . SVG Version: 6.00 Build 0) --> <svg xmlns="http://www.w3.org/2000/svg" xmlns:xlink="http://www.w3.org/1999/xlink" id="Layer_1" x="0px" y="0px" viewBox="0 0 80 80" style="enable-background:new 0 0 80 80;" xml:space="preserve"> <style type="text/css"> .st0{fill:none;stroke:#ffffff;stroke-width:2;stroke-linecap:round;stroke-linejoin:round;stroke-miterlimit:10;} </style> <g> <path class="st0" d="M39,78.4c1.1,0.8,2.5,0.8,3.6,0C52.4,70.7,70,61.1,70,43V16.1c0-1.8-1.3-3.2-2.9-3.3 C54.5,11.9,46.3,5.5,42.9,1.9c-1.2-1.2-3-1.2-4.2,0c-3.6,3.6-11.6,10-24.3,10.9c-1.6,0.1-2.8,1.6-2.8,3.3V43 C11.6,61.1,29.2,70.7,39,78.4z"></path> <g> <line class="st0" x1="53.3" y1="33.4" x2="53.3" y2="51.7"></line> <g> <polygon class="st0" points="22.2,29.9 40.8,18.8 59.3,29.9 40.8,29.9 "></polygon> <line class="st0" x1="25.1" y1="33.4" x2="56.4" y2="33.4"></line> <line class="st0" x1="25.1" y1="51.7" x2="56.4" y2="51.7"></line> <line class="st0" x1="22.2" y1="55.2" x2="59.3" y2="55.2"></line> <line class="st0" x1="28.3" y1="33.4" x2="28.3" y2="51.7"></line> <line class="st0" x1="45" y1="33.4" x2="45" y2="51.7"></line> <line class="st0" x1="36.6" y1="33.4" x2="36.6" y2="51.7"></line> </g> </g> </g> </svg> 