<?xml version="1.0" encoding="UTF-8"?> <svg xmlns="http://www.w3.org/2000/svg" width="110" height="110" viewBox="0 0 110 110" fill="none"> <circle cx="55" cy="55" r="54.5" stroke="#24B2A4"></circle> <path d="M80 51.2274C80 50.9392 79.8491 50.6648 79.5746 50.5276V50.5139L74.2781 47.4814V30.8233C74.2781 30.3705 73.9076 30 73.4548 30H37.5315C37.0787 30 36.7082 30.3705 36.7082 30.8233V47.4951L31.4116 50.5276V50.5413C31.2882 50.6099 31.1784 50.706 31.0961 50.8295C31.0274 50.953 31 51.0902 31 51.2411V51.2411V78.1904C31 78.2041 31.0137 78.2179 31.0137 78.2316C31.0137 78.2865 31.0274 78.3414 31.0412 78.3962C31.0549 78.4511 31.0686 78.506 31.0961 78.5472C31.1098 78.5609 31.0961 78.5746 31.1098 78.5884C31.1509 78.6432 31.1921 78.6981 31.2333 78.753V78.7667C31.3019 78.8353 31.3842 78.8902 31.4665 78.9177C31.494 78.9314 31.5077 78.9314 31.5351 78.9451C31.6312 78.9863 31.7135 79 31.8096 79H79.1767H79.1904C79.2865 79 79.3688 78.9726 79.4649 78.9451C79.4923 78.9314 79.506 78.9314 79.5335 78.9177C79.6158 78.8765 79.6981 78.8216 79.7667 78.7667L79.7805 78.753C79.8353 78.6981 79.8765 78.6432 79.904 78.5884C79.9177 78.5746 79.9177 78.5609 79.9177 78.5472C79.9451 78.4923 79.9588 78.4511 79.9726 78.3962C79.9863 78.3414 80 78.2865 80 78.2316C80 78.2179 80.0137 78.2041 80.0137 78.1904V51.2274H80ZM77.5301 51.2274L74.2781 53.0798V49.375L77.5301 51.2274ZM72.6452 31.6329V54.0129L55.4931 63.769L38.3548 54.0129V31.6329H72.6452ZM36.7219 53.0798L33.4699 51.2274L36.7219 49.3612V53.0798Z" fill="#24B2A4"></path> <path d="M67.3078 39.6189H43.7066C43.3224 39.6189 43.0205 39.317 43.0205 38.9328C43.0205 38.5486 43.3224 38.2467 43.7066 38.2467H67.3078C67.692 38.2467 67.9939 38.5486 67.9939 38.9328C67.9939 39.317 67.6783 39.6189 67.3078 39.6189Z" fill="#24B2A4"></path> <path d="M67.3078 45.382H43.7066C43.3224 45.382 43.0205 45.0801 43.0205 44.6959C43.0205 44.3117 43.3224 44.0098 43.7066 44.0098H67.3078C67.692 44.0098 67.9939 44.3117 67.9939 44.6959C67.9939 45.0801 67.6783 45.382 67.3078 45.382Z" fill="#24B2A4"></path> <path d="M67.3078 51.1451H43.7066C43.3224 51.1451 43.0205 50.8432 43.0205 50.459C43.0205 50.0748 43.3224 49.7729 43.7066 49.7729H67.3078C67.692 49.7729 67.9939 50.0748 67.9939 50.459C67.9939 50.8432 67.6783 51.1451 67.3078 51.1451Z" fill="#24B2A4"></path> </svg> 