<?xml version="1.0" encoding="UTF-8"?> <svg xmlns="http://www.w3.org/2000/svg" viewBox="0 0 80 80"> <g fill="none" stroke="#fff" stroke-width="2" stroke-miterlimit="10" stroke-linecap="round" stroke-linejoin="round"> <path d="M69 19v46c0 2.2-1.8 4-4 4H55M45 69H15c-2.2 0-4-1.8-4-4V5c0-2.2 1.8-4 4-4h36M21 15h10M21 35h10M21 19h18M21 31h23M21 23h14M21 27h18"></path> <path d="M45 62v17l5-5 5 5V62"></path> <circle cx="50" cy="55" r="4"></circle> <path d="M50 44l2.8 3.3 4.3-.7V51l3.8 2-2.8 3.4 1.5 4-4.2.8-1.5 4.2-3.8-2.2-3.8 2.2-1.5-4.2-4.2-.7 1.5-4-2.8-3.4 3.7-2v-4.4l4.2.7zM51 1v14c0 2.2 1.8 4 4 4h14L51 1z"></path> </g> </svg> 