<?xml version="1.0" encoding="UTF-8"?> <svg xmlns="http://www.w3.org/2000/svg" width="110" height="110" viewBox="0 0 110 110" fill="none"> <circle cx="55" cy="55" r="54.5" stroke="#24B2A4"></circle> <path d="M55.0119 83C39.5667 83 26.9971 70.4304 26.9971 55.0148C26.9971 39.5992 39.5667 26.9999 55.0119 26.9999C70.4571 26.9999 83.0268 39.5696 83.0268 55.0148C83.0268 70.46 70.4275 83 55.0119 83ZM55.0119 29.3716C40.8711 29.3716 29.3687 40.874 29.3687 55.0148C29.3687 69.1556 40.8711 80.658 55.0119 80.658C69.1528 80.658 80.6551 69.1556 80.6551 55.0148C80.6551 40.874 69.1231 29.3716 55.0119 29.3716Z" fill="#24B2A4"></path> <path d="M70.9587 59.0667C71.4627 61.0233 66.008 60.4008 64.6739 62.2388C63.3399 64.0768 60.1085 62.8317 59.3378 62.476C58.567 62.1202 55.6914 63.306 55.9582 61.2901C56.1954 59.2743 57.9741 59.1557 59.8417 58.3552C61.7094 57.5252 64.4368 54.7978 63.1027 54.4421C56.8179 52.7523 54.6834 46.8529 54.6834 46.8529C54.2981 46.7936 54.387 42.6729 52.7565 42.5543C51.126 42.4357 50.2366 43.0286 47.865 42.5543C45.4934 42.08 45.9974 40.5384 45.612 37.2478C45.2562 33.9868 46.6496 35.0244 47.3907 33.9868C47.45 33.8978 47.5389 33.8089 47.6278 33.72C38.8825 36.7142 32.5977 44.9852 32.5977 54.7385C32.5977 54.7682 32.5977 54.7682 32.5977 54.7978C34.1985 54.8867 37.163 55.2128 37.3113 56.3394C37.4891 57.8809 37.3113 59.8079 38.6453 60.3711C39.9793 60.9344 40.3647 58.0588 41.5209 58.8296C42.6771 59.6004 45.7602 60.3415 45.7602 61.7052C45.7602 63.0689 45.1969 65.1737 45.7602 65.5591C46.3235 65.9445 48.6358 68.6422 48.6358 69.0276C48.6358 69.413 49.4362 71.3696 49.1991 72.1107C48.9915 72.7332 47.9836 74.6602 47.0053 75.5199C49.4362 76.4389 52.045 76.9132 54.7724 76.9132C67.0159 76.9132 76.9767 66.9524 76.9767 54.7089C76.9767 51.0921 76.0874 47.6533 74.5458 44.6295C74.694 46.8825 74.6051 48.9577 75.0794 49.6099C77.2732 52.5744 69.8322 54.6199 70.9587 59.0667Z" fill="#24B2A4"></path> </svg> 