<?xml version="1.0" encoding="UTF-8"?> <svg xmlns="http://www.w3.org/2000/svg" viewBox="0 0 80 80"> <g fill="none" stroke="#fff" stroke-width="2" stroke-miterlimit="10" stroke-linecap="round" stroke-linejoin="round"> <path d="M31.9 46.3L31.9 46.3c0 3.3 2.7 6 6 6h4c3.3 0 6-2.7 6-6v0c0-3.3-2.7-6-6-6h-4c-3.3 0-6-2.7-6-6v0c0-3.3 2.7-6 6-6h4c3.3 0 6 2.7 6 6v0M39.9 24.3L39.9 56.3"></path> <path d="M38,78.4c1.2,0.8,2.7,0.8,3.9,0C52.7,70.7,72,61.1,72,43V16.1c0-1.8-1.4-3.2-3.2-3.3C55,11.9,46.1,5.5,42.3,1.9 c-1.3-1.2-3.3-1.2-4.6,0c-3.9,3.6-12.7,10-26.6,10.9C9.4,12.9,8,14.4,8,16.1V43C8,61.1,27.3,70.7,38,78.4z"></path> </g> </svg> 