<?xml version="1.0" encoding="UTF-8"?> <svg xmlns="http://www.w3.org/2000/svg" width="110" height="110" viewBox="0 0 110 110" fill="none"> <circle cx="55" cy="55" r="54.5" stroke="#24B2A4"></circle> <path d="M76.3524 51.1319C75.3453 47.1254 73.1599 44.5181 73.0528 44.4121C72.7957 44.0941 72.3243 44.0729 72.0029 44.3273C71.6815 44.5817 71.6601 45.048 71.9172 45.366C71.9386 45.3872 73.9741 47.825 74.8954 51.4923C76.1167 56.389 74.8311 61.0102 71.0602 65.2287C70.7817 65.5254 70.8245 65.9918 71.1245 66.2674C71.2744 66.3946 71.4459 66.4581 71.6173 66.4581C71.8315 66.4581 72.0243 66.3734 72.1743 66.2038C77.3165 60.4803 77.2737 54.8416 76.3524 51.1319Z" fill="#24B2A4"></path> <path d="M35.4933 51.5558C36.3932 47.8885 38.4715 45.4084 38.4929 45.366C38.75 45.048 38.7072 44.6028 38.4072 44.3272C38.0858 44.0729 37.6359 44.1153 37.3573 44.412C37.2502 44.518 35.0648 47.1466 34.0578 51.1319C33.1365 54.8415 33.0936 60.459 38.2358 66.2037C38.3858 66.3733 38.5786 66.4581 38.7929 66.4581C38.9643 66.4581 39.1357 66.3945 39.2857 66.2673C39.5856 65.9918 39.6285 65.5466 39.3499 65.2286C35.579 61.0314 34.272 56.4314 35.4933 51.5558Z" fill="#24B2A4"></path> <path d="M29.7513 58.6148C29.2371 55.4563 29.4299 52.2554 30.3084 49.0969C31.8082 43.7337 34.8292 40.3208 34.8721 40.2572C35.1506 39.9605 35.1292 39.4941 34.8078 39.2185C34.5078 38.943 34.0364 38.9642 33.7579 39.2821C33.6294 39.4517 30.5012 42.9706 28.8943 48.6729C27.9515 52.0222 27.7587 55.4351 28.2943 58.8268C28.9585 63.0453 30.8012 67.2001 33.7151 71.1854C33.865 71.3761 34.0793 71.4821 34.315 71.4821C34.465 71.4821 34.6149 71.4397 34.7435 71.3337C35.0649 71.1006 35.1506 70.6342 34.9149 70.3162C32.1296 66.5218 30.3941 62.6001 29.7513 58.6148Z" fill="#24B2A4"></path> <path d="M82.0945 48.6093C80.4875 42.907 77.3594 39.3881 77.2308 39.2397C76.9523 38.9429 76.4809 38.9217 76.1809 39.1761C75.881 39.4517 75.8596 39.918 76.1167 40.2148C76.1381 40.2572 79.1805 43.6701 80.6804 49.0545C81.5588 52.1918 81.7302 55.3927 81.2374 58.5724C80.5946 62.5365 78.8592 66.4793 76.0738 70.2738C75.8381 70.5918 75.9024 71.0581 76.2452 71.2913C76.3738 71.3761 76.5237 71.4397 76.6737 71.4397C76.9094 71.4397 77.1237 71.3337 77.2737 71.1429C80.209 67.1577 82.0302 62.9816 82.6944 58.7844C83.23 55.3927 83.0372 51.9586 82.0945 48.6093Z" fill="#24B2A4"></path> <path d="M65.8683 32H45.1496C43.4141 32 42 33.3991 42 35.1161V74.9051C42 76.6221 43.4141 78.0212 45.1496 78.0212H65.8683C67.6038 78.0212 69.0179 76.6221 69.0179 74.9051V35.1161C69.0179 33.3991 67.6038 32 65.8683 32ZM52.1987 34.247H58.8407C59.0549 34.247 59.2263 34.4166 59.2263 34.6286C59.2263 34.8406 59.0549 35.0101 58.8407 35.0101H52.1987C51.9844 35.0101 51.813 34.8406 51.813 34.6286C51.813 34.4166 51.9844 34.247 52.1987 34.247ZM55.4982 76.4525C54.6412 76.4525 53.9342 75.753 53.9342 74.9051C53.9342 74.0359 54.6412 73.3576 55.4982 73.3576C56.3553 73.3576 57.0623 74.0571 57.0623 74.9051C57.0838 75.753 56.3767 76.4525 55.4982 76.4525ZM66.8325 72.2553H44.1854V36.918H66.8325V72.2553Z" fill="#24B2A4"></path> </svg> 