<?xml version="1.0" encoding="UTF-8"?> <svg xmlns="http://www.w3.org/2000/svg" viewBox="0 0 114.5 114.1"> <defs> <style>.cls-1,.cls-2{fill:none;stroke:#fff;stroke-width:2.5px;}.cls-1{stroke-miterlimit:10;}.cls-2{stroke-linecap:round;stroke-linejoin:round;}</style> </defs> <title>logo_Asset 5</title> <g id="Layer_2" data-name="Layer 2"> <g id="Layer_1-2" data-name="Layer 1"> <path class="cls-1" d="M58.16,1.25c3.58.8,6,3.17,8,6,.25.35.51.69.82,1.1.88-.5,1.75-1,2.63-1.49A14.15,14.15,0,0,1,75.48,5a6.91,6.91,0,0,1,6.31,3,19,19,0,0,1,2.71,6.32c.42,1.41.4,1.42,1.89,1.25a22.63,22.63,0,0,1,7,.13c2.48.49,5.49,3.3,5.51,6.25,0,2.13,0,4.25,0,6.38,0,1.07.05,1.14,1.07,1.49a37.71,37.71,0,0,1,4.84,1.77c4.23,2.12,5.57,5.25,4.15,9.75a38.11,38.11,0,0,1-2.14,4.76c-.2.43-.47.83-.72,1.28.82.62,1.62,1.19,2.39,1.8a14.79,14.79,0,0,1,3.67,4.13,6.76,6.76,0,0,1-.77,8.49c-1.57,1.74-3.33,3.32-5.09,5.05.58,1.18,1.24,2.56,2,3.92a10.7,10.7,0,0,1,1.2,5.43,6.74,6.74,0,0,1-2.85,5.22A16.89,16.89,0,0,1,100,84.25l-1.31.33a16,16,0,0,1,.21,1.9,55.88,55.88,0,0,1-.09,6.21,7,7,0,0,1-6.56,5.84c-2.16.06-4.32,0-6.48,0H84.9c-.38,1.22-.7,2.42-1.14,3.57a20.56,20.56,0,0,1-1.51,3.22c-2,3.26-4.85,4.49-8.51,3.41a48.83,48.83,0,0,1-5.65-2.4c-.39-.17-.76-.39-1-.54-1.16,1.28-2.24,2.55-3.41,3.75a18.83,18.83,0,0,1-2.25,1.92,7,7,0,0,1-8.11.1,26.66,26.66,0,0,1-5.34-5.27l-.37-.45c-2,.91-3.89,1.93-5.89,2.63-4.28,1.51-7.56.27-9.69-3.76a37.84,37.84,0,0,1-2.11-5.59c-.17-.5-.35-.67-.88-.64-2,.09-3.91.23-5.86.16a7.27,7.27,0,0,1-6.81-4.19,7.5,7.5,0,0,1-.64-2.85c-.08-2.35,0-4.71,0-7.12A22.09,22.09,0,0,1,13,83.8a26.23,26.23,0,0,1-4.47-2c-3.08-2-4.08-4.8-3.18-8.35a18,18,0,0,1,2.26-5.2l.82-1.31a36.49,36.49,0,0,1-3.08-2.7,27.3,27.3,0,0,1-3.17-3.95A5.93,5.93,0,0,1,2.05,54,15.7,15.7,0,0,1,6.84,48.6c.53-.4,1.06-.77,1.58-1.15-.77-1.54-1.56-3-2.26-4.53a10.2,10.2,0,0,1-1.1-4.69A7.06,7.06,0,0,1,9.3,31.86,56.53,56.53,0,0,1,15,29.68c.28-.1.58-.15.91-.24A17,17,0,0,1,15.61,27a39.68,39.68,0,0,1,.11-5.23,6.92,6.92,0,0,1,6.08-6.27,20.25,20.25,0,0,1,6.59.08c.39.06.8.08,1.23.12.33-1.13.59-2.21.95-3.26a20.31,20.31,0,0,1,1.25-3c2.36-4.29,5.84-5.34,10.38-3.8A32.34,32.34,0,0,1,46,7.44c.55.27,1.08.55,1.65.84,2.32-3,4.59-6,8.56-7Zm-1,18.65c-17.79-.52-37,14.35-37.13,37A37.29,37.29,0,0,0,57,94.27c22.37,0,37.46-18.52,37.57-36.77C94.69,35.67,76.52,19.35,57.11,19.9Z"></path> <line class="cls-2" x1="35.75" y1="55.05" x2="51.8" y2="77.59"></line> <path class="cls-2" d="M79.4,40.86S69.05,53.16,65,58.72C60.91,64.43,51.8,77.59,51.8,77.59"></path> </g> </g> </svg> 