<?xml version="1.0" encoding="UTF-8"?> <svg xmlns="http://www.w3.org/2000/svg" width="110" height="110" viewBox="0 0 110 110" fill="none"> <circle cx="55" cy="55" r="54.5" stroke="#24B2A4"></circle> <g clip-path="url(#clip0)"> <path d="M74.5126 36H35.4874C34.1055 36 33 37.1034 33 38.4828V67.0069C33 68.3862 34.1055 69.4897 35.4874 69.4897H50.6884L49.5276 75.2276H46.1005C45.8794 75.2276 45.7136 75.3931 45.7136 75.6138C45.7136 75.8345 45.8794 76 46.1005 76H49.8593H60.2513H63.9548C64.1759 76 64.3417 75.8345 64.3417 75.6138C64.3417 75.3931 64.1759 75.2276 63.9548 75.2276H60.5276L59.3668 69.4897H74.5678C75.9497 69.4897 77.0553 68.3862 77.0553 67.0069V38.4828C77 37.1034 75.8945 36 74.5126 36ZM59.7538 75.2828H50.3015L51.4623 69.5448H58.5377L59.7538 75.2828ZM74.0704 64.469H35.9296V39.0897H74.1256V64.469H74.0704Z" fill="#24B2A4"></path> <path d="M39.9097 56.7449L48.5881 45.8207L53.3418 50.4552L56.2162 47.4207L60.6936 51.0621L68.2112 42.5656" stroke="#24B2A4" stroke-width="1.5" stroke-miterlimit="10" stroke-linecap="round" stroke-linejoin="round"></path> <path d="M41.0151 60.993L41.5126 60.3309" stroke="#24B2A4" stroke-width="1.5" stroke-linecap="round" stroke-linejoin="round"></path> <path d="M42.5073 59.0069L48.035 51.7793" stroke="#24B2A4" stroke-width="1.5" stroke-linecap="round" stroke-linejoin="round" stroke-dasharray="2.99 2.99"></path> <path d="M48.5327 51.1171L49.0302 50.4551L49.6382 51.062" stroke="#24B2A4" stroke-width="1.5" stroke-linecap="round" stroke-linejoin="round"></path> <path d="M50.8545 52.2759L52.7339 54.1517" stroke="#24B2A4" stroke-width="1.5" stroke-linecap="round" stroke-linejoin="round" stroke-dasharray="3.17 3.17"></path> <path d="M53.397 54.7587L53.9497 55.3656L54.5025 54.7035" stroke="#24B2A4" stroke-width="1.5" stroke-linecap="round" stroke-linejoin="round"></path> <path d="M55.166 53.8758L56.2163 52.6068" stroke="#24B2A4" stroke-width="1.5" stroke-linecap="round" stroke-linejoin="round" stroke-dasharray="1.97 1.97"></path> <path d="M56.5479 52.1655L57.1006 51.5586L57.7087 52.0551" stroke="#24B2A4" stroke-width="1.5" stroke-linecap="round" stroke-linejoin="round"></path> <path d="M58.7588 52.993L60.3065 54.3724" stroke="#24B2A4" stroke-width="1.5" stroke-linecap="round" stroke-linejoin="round" stroke-dasharray="2.49 2.49"></path> <path d="M60.8042 54.8138L61.4122 55.3656L61.965 54.7035" stroke="#24B2A4" stroke-width="1.5" stroke-linecap="round" stroke-linejoin="round"></path> <path d="M63.0703 53.4897L69.0402 46.7587" stroke="#24B2A4" stroke-width="1.5" stroke-linecap="round" stroke-linejoin="round" stroke-dasharray="2.96 2.96"></path> <path d="M69.5376 46.1517L70.0904 45.5448" stroke="#24B2A4" stroke-width="1.5" stroke-linecap="round" stroke-linejoin="round"></path> </g> <defs> <clipPath id="clip0"> <rect width="44" height="40" fill="white" transform="translate(33 36)"></rect> </clipPath> </defs> </svg> 