<?xml version="1.0" encoding="UTF-8"?> <svg xmlns="http://www.w3.org/2000/svg" width="110" height="110" viewBox="0 0 110 110" fill="none"> <circle cx="55" cy="55" r="54.5" stroke="#24B2A4"></circle> <g clip-path="url(#clip0)"> <path d="M41.2552 55.0111C44.6671 55.0111 47.5104 52.2285 47.5104 48.7645C47.5104 48.7078 47.5104 48.7078 47.4535 48.651C47.4535 48.5942 47.4535 48.5942 47.3967 48.5374L42.1082 37.9183H54.9598V68.1856H49.785C49.5007 68.1856 49.2164 68.4127 49.2164 68.7535V71.0817H38.4119C38.1276 71.0817 37.8433 71.3089 37.8433 71.6496V74.4889C37.8433 74.7729 38.0707 75.0568 38.4119 75.0568H72.6449C72.9293 75.0568 73.2136 74.8296 73.2136 74.4889V71.6496C73.2136 71.3657 72.9861 71.0817 72.6449 71.0817H61.7268V68.7535C61.7268 68.4695 61.4993 68.1856 61.1581 68.1856H56.0402V37.9183H68.8918L63.5465 48.5374C63.5465 48.5942 63.5465 48.5942 63.4896 48.651C63.4896 48.7078 63.4896 48.7078 63.4327 48.7645C63.4327 52.1717 66.2191 55.0111 69.6879 55.0111C73.1567 55.0111 75.9431 52.2285 75.9431 48.7645C75.9431 48.7078 75.9431 48.7078 75.8863 48.651C75.8863 48.5942 75.8863 48.5942 75.8294 48.5374L70.6546 37.9183H72.6449C72.9293 37.9183 73.2136 37.6911 73.2136 37.3504C73.2136 37.0097 72.9293 36.8393 72.6449 36.8393H56.0402V34.5679C56.0402 34.2839 55.8128 34 55.4716 34C55.1872 34 54.9598 34.2271 54.9598 34.5679V36.8393H38.4119C38.0707 36.8393 37.8433 37.0665 37.8433 37.4072C37.8433 37.7479 38.0707 37.9751 38.3551 37.9751H40.3454L35.0569 48.5374C35.0569 48.5942 35.0569 48.5942 35 48.651C35 48.7078 35 48.7645 35 48.7645C35 52.2285 37.7864 55.0111 41.2552 55.0111ZM74.6352 48.2535H64.9681L69.8017 38.5997L74.6352 48.2535ZM41.2552 38.5997L46.0888 48.2535H36.4216L41.2552 38.5997Z" fill="#24B2A4"></path> </g> <defs> <clipPath id="clip0"> <rect width="41" height="41" fill="white" transform="translate(35 34)"></rect> </clipPath> </defs> </svg> 