<?xml version="1.0" encoding="UTF-8"?> <svg xmlns="http://www.w3.org/2000/svg" width="110" height="110" viewBox="0 0 110 110" fill="none"> <circle cx="55" cy="55" r="54.5" stroke="#24B2A4"></circle> <path d="M70.7825 41H39.2173V55.4318H70.739V41H70.7825ZM68.9564 51.9001C67.4782 51.9001 66.8695 52.5977 66.8695 53.993H43.1303C43.1303 52.5977 42.5216 51.9001 41.0434 51.9001C41.0434 49.4585 41.0434 46.9733 41.0434 44.5316C42.4782 44.5316 43.1303 43.8776 43.1303 42.4388C51.0434 42.4388 58.9564 42.4388 66.8695 42.4388C66.8695 43.8776 67.5216 44.5316 68.9564 44.5316C68.9564 46.9733 68.9564 49.4585 68.9564 51.9001Z" fill="#24B2A4"></path> <path d="M55.2174 47.5837V45.4908C55.7391 45.6216 55.9565 45.9704 56.0435 46.45L56.7826 46.3192C56.6522 45.4036 56.087 44.924 55.2174 44.8368V44.5316H54.7826V44.8804C52.6957 45.0984 52.3913 47.6273 54.7826 48.2377V50.5485C54.087 50.4613 53.8261 49.8509 53.7391 49.2405L53 49.3713C53.087 50.5049 53.6957 51.0281 54.7826 51.1589V51.9001H55.2174V51.1589C57.087 51.0717 58 48.3249 55.2174 47.5837ZM54.7826 47.4965C53.4348 47.1476 53.6522 45.6652 54.7826 45.4908V47.4965ZM55.2174 50.5485V48.3685C56.8261 48.7609 56.2609 50.4177 55.2174 50.5485Z" fill="#24B2A4"></path> <path d="M33.6522 64.5007V49.6765C33.6522 49.1533 34.087 48.7609 34.5652 48.7609H35.2609V49.5893C35.2609 49.7201 35.4783 49.8509 35.6087 49.7201L37.3478 48.5865C37.4348 48.5429 37.4783 48.3685 37.4348 48.2813C37.3913 48.1941 35.8261 47.2349 35.6087 47.0605C35.5217 47.0169 35.3913 47.0169 35.3043 47.1477C35.2174 47.2785 35.2609 47.9325 35.2609 48.1069H34.5652C33.6957 48.1069 33 48.8045 33 49.6765V64.5443C33 65.3727 33.7391 66.1139 34.5652 66.1139H41.6087V65.4599H34.5652C34.087 65.4599 33.6522 65.0239 33.6522 64.5007Z" fill="#24B2A4"></path> <path d="M75.4348 48.0634H73.6522V48.7174H75.4348C75.9565 48.7174 76.3478 49.1534 76.3478 49.633V64.5008C76.3478 65.024 75.913 65.4164 75.4348 65.4164H69.4783V64.588C69.4783 64.4136 69.3043 64.3264 69.1304 64.4136L67.3478 65.5472C67.2174 65.6344 67.2174 65.8088 67.3478 65.896L69.087 67.0296C69.2174 67.1168 69.4348 67.0296 69.4348 66.8552V66.0268H75.3478C76.2174 66.0268 76.913 65.3292 76.913 64.4572V49.6766C77 48.8046 76.3043 48.0634 75.4348 48.0634Z" fill="#24B2A4"></path> <path d="M63.435 58.9635H46.5654C45.4785 58.9635 44.5654 59.8791 44.5654 60.9691C44.5654 63.9776 44.5654 66.986 44.5654 69.9944C44.5654 71.0845 45.4785 72.0001 46.5654 72.0001H63.435C64.522 72.0001 65.435 71.0845 65.435 69.9944C65.435 66.986 65.435 63.9776 65.435 60.9255C65.435 59.8791 64.522 58.9635 63.435 58.9635ZM64.7828 63.6288H45.2176V61.6231H64.7828V63.6288Z" fill="#24B2A4"></path> </svg> 