<svg style="display:none;" xmlns="http://www.w3.org/2000/svg">
	<!-- lang: en -->
	<symbol id="lang_en" x="0" y="0" viewBox="0 0 512 512">
		<circle style="fill:#F0F0F0;" cx="256" cy="256" r="256"/>
		<g>
			<path style="fill:#0052B4;" d="M52.92,100.142c-20.109,26.163-35.272,56.318-44.101,89.077h133.178L52.92,100.142z"/>
			<path style="fill:#0052B4;" d="M503.181,189.219c-8.829-32.758-23.993-62.913-44.101-89.076l-89.075,89.076H503.181z"/>
			<path style="fill:#0052B4;" d="M8.819,322.784c8.83,32.758,23.993,62.913,44.101,89.075l89.074-89.075L8.819,322.784L8.819,322.784
				z"/>
			<path style="fill:#0052B4;" d="M411.858,52.921c-26.163-20.109-56.317-35.272-89.076-44.102v133.177L411.858,52.921z"/>
			<path style="fill:#0052B4;" d="M100.142,459.079c26.163,20.109,56.318,35.272,89.076,44.102V370.005L100.142,459.079z"/>
			<path style="fill:#0052B4;" d="M189.217,8.819c-32.758,8.83-62.913,23.993-89.075,44.101l89.075,89.075V8.819z"/>
			<path style="fill:#0052B4;" d="M322.783,503.181c32.758-8.83,62.913-23.993,89.075-44.101l-89.075-89.075V503.181z"/>
			<path style="fill:#0052B4;" d="M370.005,322.784l89.075,89.076c20.108-26.162,35.272-56.318,44.101-89.076H370.005z"/>
		</g>
		<g>
			<path style="fill:#D80027;" d="M509.833,222.609h-220.44h-0.001V2.167C278.461,0.744,267.317,0,256,0
				c-11.319,0-22.461,0.744-33.391,2.167v220.44v0.001H2.167C0.744,233.539,0,244.683,0,256c0,11.319,0.744,22.461,2.167,33.391
				h220.44h0.001v220.442C233.539,511.256,244.681,512,256,512c11.317,0,22.461-0.743,33.391-2.167v-220.44v-0.001h220.442
				C511.256,278.461,512,267.319,512,256C512,244.683,511.256,233.539,509.833,222.609z"/>
			<path style="fill:#D80027;" d="M322.783,322.784L322.783,322.784L437.019,437.02c5.254-5.252,10.266-10.743,15.048-16.435
				l-97.802-97.802h-31.482V322.784z"/>
			<path style="fill:#D80027;" d="M189.217,322.784h-0.002L74.98,437.019c5.252,5.254,10.743,10.266,16.435,15.048l97.802-97.804
				V322.784z"/>
			<path style="fill:#D80027;" d="M189.217,189.219v-0.002L74.981,74.98c-5.254,5.252-10.266,10.743-15.048,16.435l97.803,97.803
				H189.217z"/>
			<path style="fill:#D80027;" d="M322.783,189.219L322.783,189.219L437.02,74.981c-5.252-5.254-10.743-10.266-16.435-15.047
				l-97.802,97.803V189.219z"/>
		</g>
	</symbol>

	<!-- lang: ru -->
	<symbol id="lang_ru" viewBox="0 0 512 512"><circle cx="256" cy="256" fill="#f0f0f0" r="256"/><path d="m496.077 345.043c10.291-27.733 15.923-57.729 15.923-89.043s-5.632-61.31-15.923-89.043h-480.154c-10.29 27.733-15.923 57.729-15.923 89.043s5.633 61.31 15.923 89.043l240.077 22.261z" fill="#0052b4"/><path d="m256 512c110.071 0 203.906-69.472 240.077-166.957h-480.154c36.171 97.485 130.006 166.957 240.077 166.957z" fill="#d80027"/></symbol>
	
	<!--btc-->
    <symbol id="btc" viewBox="0 0 497.693 497.693">
        <g>
            <path style="fill:#ED6C0C;" d="M232.047,194.493l-11.2,46.4c14.4,3.2,58.4,17.6,64.8-8.8
                C292.047,204.893,246.447,198.493,232.047,194.493z"/>
            <path style="fill:#E05A00;" d="M285.647,232.893c7.2-27.2-39.2-34.4-53.6-37.6l-11.2,45.6"/>
            <path style="fill:#ED6C0C;" d="M248.047,131.293l-10.4,42.4c12,3.2,48.8,15.2,54.4-8.8
                C297.647,140.093,260.047,134.493,248.047,131.293z"/>
            <path style="fill:#E05A00;" d="M292.047,164.893c6.4-24.8-32-30.4-44-33.6l-10.4,42.4"/>
            <path style="fill:#FFB600;" d="M295.247,5.693c-103.2-25.6-207.2,37.6-232.8,140c-25.6,103.2,36.8,207.2,140,232.8
                s207.2-36.8,232.8-140C460.847,136.093,398.447,32.093,295.247,5.693z M333.647,164.893c-2.4,18.4-12.8,28-27.2,31.2
                c19.2,9.6,28.8,24.8,19.2,51.2c-11.2,32.8-38.4,35.2-74.4,28.8l-8.8,35.2l-20.8-6.4l8.8-34.4c-5.6-1.6-11.2-3.2-16.8-4l-8.8,34.4
                l-20.8-5.6l8.8-35.2c-4.8-1.6-9.6-2.4-15.2-4l-27.2-7.2l10.4-24l15.2,4c5.6,1.6,8.8-2.4,9.6-4.8l13.6-55.2c0.8,0,1.6,0,2.4,0.8
                c-0.8,0-1.6-0.8-2.4-0.8l9.6-39.2c0-4.8-1.6-10.4-9.6-12l-15.2-4l5.6-22.4l28.8,7.2l0,0c4,0.8,8.8,2.4,13.6,3.2l8.8-34.4l20.8,5.6
                l-8.8,33.6c5.6,1.6,11.2,2.4,16.8,4l8-33.6l20.8,5.6l-8.8,34.4C317.647,125.693,337.647,139.293,333.647,164.893z"/>
            <path style="fill:#F6921E;" d="M62.447,145.693c-25.6,103.2,36.8,207.2,140,232.8s207.2-36.8,232.8-140
                c25.6-103.2-36.8-207.2-140-232.8 M333.647,164.893c-2.4,18.4-12.8,28-27.2,31.2c19.2,9.6,28.8,24.8,19.2,51.2
                c-11.2,32.8-38.4,35.2-74.4,28.8l-8.8,35.2l-20.8-6.4l8.8-34.4c-5.6-1.6-11.2-3.2-16.8-4l-8.8,34.4l-20.8-5.6l8.8-35.2
                c-4.8-1.6-9.6-2.4-15.2-4l-27.2-7.2l10.4-24l15.2,4c5.6,1.6,8.8-2.4,9.6-4.8l13.6-55.2c0.8,0,1.6,0,2.4,0.8c-0.8,0-1.6-0.8-2.4-0.8
                l9.6-39.2c0-4.8-1.6-10.4-9.6-12l-15.2-4l5.6-22.4l28.8,7.2l0,0c4,0.8,8.8,2.4,13.6,3.2l8.8-34.4l20.8,5.6l-8.8,33.6
                c5.6,1.6,11.2,2.4,16.8,4l8-33.6l20.8,5.6l-8.8,34.4C317.647,125.693,337.647,139.293,333.647,164.893z"/>
            <path style="fill:#D85107;" d="M433.647,245.693l-104-104c4,6.4,6.4,14.4,4.8,24c-2.4,18.4-12.8,28-27.2,31.2
                c19.2,9.6,28.8,24.8,19.2,51.2c-11.2,32.8-38.4,35.2-74.4,28.8l-8.8,35.2l-21.6-7.2l8.8-34.4c-5.6-1.6-11.2-3.2-16.8-4l-8.8,34.4
                l-4.8-1.6l81.6,81.6C352.047,368.893,412.847,317.693,433.647,245.693z"/>
            <g>
                <path style="fill:#4D4E4E;" d="M104.047,427.293c4,0,7.2,0.8,10.4,2.4c3.2,1.6,5.6,3.2,7.2,5.6s3.2,5.6,4,8.8
                    c0.8,3.2,1.6,7.2,1.6,10.4c0,5.6-0.8,11.2-3.2,16.8c-2.4,5.6-4.8,9.6-8.8,13.6s-8,7.2-13.6,8.8c-4.8,2.4-10.4,3.2-16.8,3.2
                    c-0.8,0-2.4,0-4,0s-4,0-6.4-0.8c-2.4,0-4.8-0.8-8-1.6c-2.4-0.8-5.6-1.6-8-2.4l21.6-92l20-3.2l-8,32.8c1.6-0.8,3.2-1.6,4.8-1.6
                    C100.047,428.093,102.447,427.293,104.047,427.293 M88.047,481.693c3.2,0,5.6-0.8,8-2.4s4.8-3.2,6.4-5.6s3.2-4.8,4.8-8
                    c0.8-3.2,1.6-6.4,1.6-9.6c0-4-0.8-7.2-2.4-9.6s-4-3.2-7.2-3.2c-0.8,0-2.4,0-4.8,0.8c-1.6,0.8-4,1.6-4.8,2.4l-8,34.4
                    c0.8,0,0.8,0,1.6,0h0.8c0.8,0,0.8,0,1.6,0C85.647,481.693,86.447,481.693,88.047,481.693L88.047,481.693z"/>
                <path style="fill:#4D4E4E;" d="M148.047,495.293h-19.2l16-66.4h19.2L148.047,495.293 M157.647,420.893c-2.4,0-4.8-0.8-7.2-2.4
                    s-3.2-4-3.2-7.2c0-1.6,0-3.2,0.8-4.8c0.8-1.6,1.6-3.2,3.2-4c0.8-0.8,2.4-2.4,4-2.4c1.6-0.8,3.2-0.8,4.8-0.8c2.4,0,4.8,0.8,7.2,2.4
                    s3.2,4,3.2,7.2c0,1.6,0,3.2-0.8,4.8c-0.8,1.6-1.6,3.2-3.2,4c-0.8,0.8-2.4,2.4-4,2.4S159.247,420.893,157.647,420.893z"/>
                <path style="fill:#4D4E4E;" d="M180.847,412.093l20-3.2l-4.8,20h20.8l-4,15.2h-20.8l-5.6,23.2c-0.8,1.6-0.8,4-0.8,5.6s0,3.2,0.8,4
                    c0.8,1.6,1.6,2.4,2.4,3.2c1.6,0.8,3.2,0.8,5.6,0.8c2.4,0,4,0,5.6-0.8c1.6,0,4-0.8,5.6-1.6l1.6,14.4c-2.4,0.8-5.6,1.6-8,2.4
                    c-3.2,1.6-6.4,1.6-10.4,1.6c-5.6,0-10.4-0.8-13.6-2.4c-3.2-1.6-5.6-4-7.2-7.2c-1.6-3.2-1.6-6.4-1.6-10.4s0.8-8,1.6-12
                    L180.847,412.093"/>
                <path style="fill:#4D4E4E;" d="M216.047,468.893c0-5.6,0.8-11.2,3.2-16c1.6-4.8,4.8-9.6,8-13.6s8-6.4,12.8-8.8s10.4-3.2,16.8-3.2
                    c4,0,7.2,0,10.4,0.8s5.6,1.6,8,3.2l-6.4,14.4c-1.6-0.8-3.2-1.6-5.6-1.6c-1.6-0.8-4-0.8-6.4-0.8c-6.4,0-11.2,2.4-15.2,6.4
                    s-5.6,10.4-5.6,17.6c0,4,0.8,8,3.2,10.4c1.6,2.4,5.6,4,10.4,4c2.4,0,4.8,0,7.2-0.8c2.4-0.8,4-0.8,6.4-1.6l1.6,15.2
                    c-2.4,0.8-4.8,1.6-8,2.4s-6.4,0.8-10.4,0.8c-5.6,0-9.6-0.8-13.6-2.4s-6.4-3.2-8.8-6.4c-2.4-2.4-4-5.6-4.8-8.8
                    C216.047,476.093,216.047,472.893,216.047,468.893"/>
                <path style="fill:#4D4E4E;" d="M299.247,497.693c-4.8,0-8-0.8-12-2.4c-3.2-1.6-6.4-3.2-8-5.6c-2.4-2.4-4-5.6-4.8-8.8
                    c-0.8-3.2-1.6-7.2-1.6-11.2c0-4.8,0.8-10.4,2.4-15.2c1.6-4.8,4-9.6,7.2-13.6s7.2-7.2,12-9.6s9.6-4,16-4c4.8,0,8,0.8,12,2.4
                    c3.2,1.6,6.4,3.2,8,5.6c2.4,2.4,4,5.6,4.8,8.8c0.8,3.2,1.6,7.2,1.6,11.2c0,4.8-0.8,10.4-2.4,15.2c-1.6,4.8-4,9.6-7.2,13.6
                    s-7.2,7.2-12,9.6S305.647,497.693,299.247,497.693L299.247,497.693 M308.847,443.293c-2.4,0-5.6,0.8-7.2,2.4c-2.4,1.6-4,4-5.6,6.4
                    s-2.4,4.8-3.2,8c-0.8,3.2-0.8,5.6-0.8,8c0,4,0.8,7.2,2.4,9.6s4,3.2,7.2,3.2s5.6-0.8,7.2-2.4c2.4-1.6,4-4,5.6-6.4s2.4-4.8,3.2-8
                    c0.8-3.2,0.8-5.6,0.8-8c0-4-0.8-7.2-2.4-9.6S312.047,443.293,308.847,443.293z"/>
                <path style="fill:#4D4E4E;" d="M357.647,495.293h-19.2l16-66.4h19.2L357.647,495.293 M366.447,420.893c-2.4,0-4.8-0.8-7.2-2.4
                    c-2.4-1.6-3.2-4-3.2-7.2c0-1.6,0-3.2,0.8-4.8c0.8-1.6,1.6-3.2,3.2-4c0.8-0.8,2.4-2.4,4-2.4c1.6-0.8,3.2-0.8,4.8-0.8
                    c2.4,0,4.8,0.8,7.2,2.4c2.4,1.6,3.2,4,3.2,7.2c0,1.6,0,3.2-0.8,4.8c-0.8,1.6-1.6,3.2-3.2,4c-0.8,0.8-2.4,2.4-4,2.4
                    S368.047,420.893,366.447,420.893z"/>
                <path style="fill:#4D4E4E;" d="M387.247,432.093c1.6-0.8,3.2-0.8,4.8-1.6c1.6-0.8,4-0.8,5.6-1.6c2.4-0.8,4.8-0.8,7.2-0.8
                    c2.4,0,5.6-0.8,8.8-0.8c9.6,0,16.8,3.2,20.8,8.8c4,5.6,4.8,13.6,1.6,24l-8.8,36h-18.4l8-35.2c0.8-2.4,0.8-4,1.6-6.4
                    c0-2.4,0-4,0-5.6s-0.8-3.2-2.4-4s-3.2-1.6-5.6-1.6s-4.8,0-7.2,0.8l-12,52h-19.2L387.247,432.093"/>
            </g>
            <g>
                <path style="fill:#E26600;" d="M150.447,249.693L150.447,249.693l36,36l6.4-25.6c-4.8-1.6-9.6-2.4-15.2-4L150.447,249.693z"/>
                <path style="fill:#E26600;" d="M294.447,106.493L294.447,106.493l-3.2,10.4c9.6,3.2,18.4,7.2,25.6,12L294.447,106.493z"/>
            </g>
            <g>
                <path style="fill:#ED6C0C;" d="M262.447,72.893L262.447,72.893l-8.8,33.6c5.6,1.6,11.2,2.4,16.8,4l5.6-24L262.447,72.893z"/>
                <path style="fill:#ED6C0C;" d="M300.047,81.693L300.047,81.693l-8.8,34.4l0.8,0.8c24,8,42.4,20.8,42.4,42.4l96,96
                    c1.6-5.6,3.2-11.2,4.8-16c1.6-6.4,2.4-12,3.2-18.4L300.047,81.693z"/>
                <path style="fill:#ED6C0C;" d="M318.447,371.293l-72.8-72.8l-3.2,12l-20.8-5.6l6.4-24.8l-14.4-14.4l0,0l-8.8,34.4l-20.8-5.6v-0.8
                    l-0.8,0.8l87.2,87.2C287.247,380.893,303.247,376.893,318.447,371.293z"/>
            </g>
            <path style="fill:#E05A00;" d="M338.447,361.693l-86.4-86.4c0,0,0,0-0.8,0l-8.8,35.2l-20-4.8l72.8,72.8
                C310.447,374.493,324.847,368.893,338.447,361.693z"/>
        </g>
    </symbol>

	<!--$-->
    <symbol id="dollar" viewBox="0 0 511.995 511.995">
        <g>
			<path d="M278.622,224.006V110.243c24.336,4.105,47.283,14.091,66.901,29.087c3.911,2.682,8.5,4.137,13.251,4.201
				c15.222,0,27.633-12.249,27.794-27.471c0.032-6.528-2.521-12.798-7.11-17.452c-28.344-24.272-63.895-38.589-101.159-40.722V19.749
				c0-10.892-8.823-19.715-19.715-19.715c-0.226-0.032-0.453-0.032-0.679-0.032c-11.053-0.162-20.167,8.662-20.329,19.747v36.844
				c-72.718,5.171-122.166,50.095-122.166,109.885c0,73.364,62.376,93.726,122.166,109.885V405.64
				c-31.544-4.234-61.277-17.323-85.646-37.813c-4.589-3.652-10.278-5.688-16.16-5.817c-14.899,1.034-26.372,13.509-26.179,28.441
				c-0.032,6.528,2.521,12.798,7.11,17.452c33.386,30.057,76.306,47.348,121.197,48.802v35.551c0,0.226,0.032,0.453,0.032,0.679
				c0.517,11.053,9.922,19.585,20.975,19.036c10.892,0,19.715-8.823,19.715-19.715v-36.197
				c88.231-5.817,123.782-59.467,123.782-116.349C402.404,263.436,338.413,240.166,278.622,224.006z M237.9,213.664
				c-35.228-10.342-62.699-21.007-62.699-51.064s24.886-51.711,62.699-54.619V213.664z M278.622,406.286V288.645
				c36.521,10.342,64.961,24.239,64.638,58.174C343.26,371.382,326.454,400.469,278.622,406.286z"/>
		</g>
    </symbol>

	<!-- credit -->
    <symbol id="credit" viewBox="0 0 15 15">
        <g fill="none">
			<path fill="#C4B5FD" fill-rule="evenodd" clip-rule="evenodd" d="M7.5.421L14 4.213v6.574L7.5 14.58L1 10.787V4.213L7.5.42zM7.5 4a3.5 3.5 0 1 0 0 7h.182c.976 0 1.913-.388 2.604-1.078l.068-.068l-.708-.708l-.068.068A2.682 2.682 0 0 1 7.682 10H7.5a2.5 2.5 0 0 1 0-5h.182c.711 0 1.393.283 1.896.786l.068.068l.708-.708l-.068-.068A3.682 3.682 0 0 0 7.682 4H7.5z"/>
		</g>
    </symbol>
		
	<!-- Close -->
    <symbol id="x" viewBox="0 0 20 20">
        <path d="M15.898,4.045c-0.271-0.272-0.713-0.272-0.986,0l-4.71,4.711L5.493,4.045c-0.272-0.272-0.714-0.272-0.986,0s-0.272,0.714,0,0.986l4.709,4.711l-4.71,4.711c-0.272,0.271-0.272,0.713,0,0.986c0.136,0.136,0.314,0.203,0.492,0.203c0.179,0,0.357-0.067,0.493-0.203l4.711-4.711l4.71,4.711c0.137,0.136,0.314,0.203,0.494,0.203c0.178,0,0.355-0.067,0.492-0.203c0.273-0.273,0.273-0.715,0-0.986l-4.711-4.711l4.711-4.711C16.172,4.759,16.172,4.317,15.898,4.045z"></path>
    </symbol>

	<!-- Account types table symbols -->
    <symbol id="incorrect" viewBox="0 0 512 512">
        <g>
            <path d="m256 0c-141.164062 0-256 114.835938-256 256s114.835938 256 256 256 256-114.835938 256-256-114.835938-256-256-256zm0 0" fill="#f44336" />
            <path
                d="m350.273438 320.105469c8.339843 8.34375 8.339843 21.824219 0 30.167969-4.160157 4.160156-9.621094 6.25-15.085938 6.25-5.460938 0-10.921875-2.089844-15.082031-6.25l-64.105469-64.109376-64.105469 64.109376c-4.160156 4.160156-9.621093 6.25-15.082031 6.25-5.464844 0-10.925781-2.089844-15.085938-6.25-8.339843-8.34375-8.339843-21.824219 0-30.167969l64.109376-64.105469-64.109376-64.105469c-8.339843-8.34375-8.339843-21.824219 0-30.167969 8.34375-8.339843 21.824219-8.339843 30.167969 0l64.105469 64.109376 64.105469-64.109376c8.34375-8.339843 21.824219-8.339843 30.167969 0 8.339843 8.34375 8.339843 21.824219 0 30.167969l-64.109376 64.105469zm0 0"
                fill="#fafafa" />
        </g>
    </symbol>

    <symbol id="correct" viewBox="0 0 512 512">
        <g>
            <path d="m256 0c-141.164062 0-256 114.835938-256 256s114.835938 256 256 256 256-114.835938 256-256-114.835938-256-256-256zm0 0" fill="#2CCA00" />
            <path
                d="m385.75 201.75-138.667969 138.664062c-4.160156 4.160157-9.621093 6.253907-15.082031 6.253907s-10.921875-2.09375-15.082031-6.253907l-69.332031-69.332031c-8.34375-8.339843-8.34375-21.824219 0-30.164062 8.339843-8.34375 21.820312-8.34375 30.164062 0l54.25 54.25 123.585938-123.582031c8.339843-8.34375 21.820312-8.34375 30.164062 0 8.339844 8.339843 8.339844 21.820312 0 30.164062zm0 0"
                fill="#fafafa" />
        </g>
    </symbol>

	<!-- user symbol -->
    <symbol id="profile" viewBox="0 0 350 350">
        <g>
            <path d="M175,171.173c38.914,0,70.463-38.318,70.463-85.586C245.463,38.318,235.105,0,175,0s-70.465,38.318-70.465,85.587
                C104.535,132.855,136.084,171.173,175,171.173z"/>
            <path d="M41.909,301.853C41.897,298.971,41.885,301.041,41.909,301.853L41.909,301.853z"/>
            <path d="M308.085,304.104C308.123,303.315,308.098,298.63,308.085,304.104L308.085,304.104z"/>
            <path d="M307.935,298.397c-1.305-82.342-12.059-105.805-94.352-120.657c0,0-11.584,14.761-38.584,14.761
                s-38.586-14.761-38.586-14.761c-81.395,14.69-92.803,37.805-94.303,117.982c-0.123,6.547-0.18,6.891-0.202,6.131
                c0.005,1.424,0.011,4.058,0.011,8.651c0,0,19.592,39.496,133.08,39.496c113.486,0,133.08-39.496,133.08-39.496
                c0-2.951,0.002-5.003,0.005-6.399C308.062,304.575,308.018,303.664,307.935,298.397z"/>
        </g>
    </symbol>

	<!-- slider arrs -->
    <symbol id="chev-right" viewBox="0 0 444.819 444.819">
        <g>
            <path d="M352.025,196.712L165.884,10.848C159.029,3.615,150.469,0,140.187,0c-10.282,0-18.842,3.619-25.697,10.848L92.792,32.264
            c-7.044,7.043-10.566,15.604-10.566,25.692c0,9.897,3.521,18.56,10.566,25.981l138.753,138.473L92.786,361.168
            c-7.042,7.043-10.564,15.604-10.564,25.693c0,9.896,3.521,18.562,10.564,25.98l21.7,21.413
            c7.043,7.043,15.612,10.564,25.697,10.564c10.089,0,18.656-3.521,25.697-10.564l186.145-185.864
            c7.046-7.423,10.571-16.084,10.571-25.981C362.597,212.321,359.071,203.755,352.025,196.712z"/>
        </g>
    </symbol>

    <symbol id="chev-left" viewBox="0 0 444.531 444.531">
        <g>
            <path d="M213.13,222.409L351.88,83.653c7.05-7.043,10.567-15.657,10.567-25.841c0-10.183-3.518-18.793-10.567-25.835
            l-21.409-21.416C323.432,3.521,314.817,0,304.637,0s-18.791,3.521-25.841,10.561L92.649,196.425
            c-7.044,7.043-10.566,15.656-10.566,25.841s3.521,18.791,10.566,25.837l186.146,185.864c7.05,7.043,15.66,10.564,25.841,10.564
            s18.795-3.521,25.834-10.564l21.409-21.412c7.05-7.039,10.567-15.604,10.567-25.697c0-10.085-3.518-18.746-10.567-25.978
            L213.13,222.409z"/>
        </g>
    </symbol>

    <!-- chat support -->
    <symbol id="chatSupport" viewBox="0 0 512 512">
        <g>
            <g>
                <g>
                    <path d="M136,210c-24.814,0-45,20.186-45,45v122c0,24.814,20.186,45,45,45c24.814,0,45-20.186,45-45V255
                        C181,230.186,160.814,210,136,210z"/>
                </g>
            </g>
            <g>
                <g>
                    <path d="M61,255c0-4.327,0.571-8.507,1.278-12.634C44.2,248.209,31,265.001,31,285v62c0,19.999,13.2,36.791,31.278,42.634
                        C61.571,385.507,61,381.327,61,377V255z"/>
                </g>
            </g>
            <g>
                <g>
                    <path d="M376,210c-24.814,0-45,20.186-45,45v122c0,24.814,20.186,45,45,45c4.51,0,8.782-0.868,12.892-2.108
                        C383.308,438.401,366.305,452,346,452h-47.763c-6.213-17.422-22.707-30-42.237-30c-24.814,0-45,20.186-45,45
                        c0,24.814,20.186,45,45,45c19.53,0,36.024-12.578,42.237-30H346c41.353,0,75-33.647,75-75v-30V255
                        C421,230.186,400.814,210,376,210z"/>
                </g>
            </g>
            <g>
                <g>
                    <path d="M449.722,242.366C450.429,246.493,451,250.673,451,255v122c0,4.327-0.571,8.507-1.278,12.634
                        C467.8,383.791,481,366.999,481,347v-62C481,265.001,467.8,248.209,449.722,242.366z"/>
                </g>
            </g>
            <g>
                <g>
                    <path d="M256,0C131.928,0,31,100.928,31,225v0.383c8.937-6.766,19.277-11.717,30.687-13.934C68.698,110.251,153.054,30,256,30
                        s187.302,80.251,194.313,181.448c11.409,2.217,21.749,7.169,30.687,13.934V225C481,100.928,380.072,0,256,0z"/>
                </g>
            </g>
        </g>
    </symbol>

	<!-- chat send -->
	<symbol id="chatSendMessage" viewBox="0 0 465.882 465.882">
        <path d="m465.882 0-465.882 262.059 148.887 55.143 229.643-215.29-174.674 235.65.142.053-.174-.053v128.321l83.495-97.41 105.77 39.175z"/>
    </symbol>

	<!-- chat arrow up -->
	<symbol id="chatArrowUp" viewBox="0 0 492.002 492.002">
        <path d="M484.136,328.473L264.988,109.329c-5.064-5.064-11.816-7.844-19.172-7.844c-7.208,0-13.964,2.78-19.02,7.844
			L7.852,328.265C2.788,333.333,0,340.089,0,347.297c0,7.208,2.784,13.968,7.852,19.032l16.124,16.124
			c5.064,5.064,11.824,7.86,19.032,7.86s13.964-2.796,19.032-7.86l183.852-183.852l184.056,184.064
			c5.064,5.06,11.82,7.852,19.032,7.852c7.208,0,13.96-2.792,19.028-7.852l16.128-16.132
			C494.624,356.041,494.624,338.965,484.136,328.473z"/>
    </symbol>

	<!-- chat no messages -->
	<symbol id="noMessages" viewBox="1 1 511.99988 511">
		<path d="m301.066406 322.777344 21.210938-21.210938 84.851562 84.851563-21.210937 21.210937zm0 0" fill="#c6e2e7"/><path d="m301.066406 322.777344 10.605469-10.605469 84.851563 84.851563-10.605469 10.605468zm0 0" fill="#8ebac5"/><path d="m332.886719 57.613281c-76.152344-76.152343-199.621094-76.152343-275.769531 0-76.152344 76.152344-76.152344 199.617188 0 275.769531 76.148437 76.152344 199.617187 76.152344 275.769531 0 76.148437-76.152343 76.148437-199.617187 0-275.769531zm0 0" fill="#5a5a5a"/><path d="m57.117188 57.613281 275.773437 275.769531c-76.15625 76.15625-199.617187 76.15625-275.773437 0s-76.15625-199.613281 0-275.769531zm0 0" fill="#444"/><path d="m311.699219 312.195312c-64.5 64.5-168.898438 64.5-233.398438 0s-64.5-168.898437 0-233.398437 168.898438-64.5 233.398438 0 64.5 168.898437 0 233.398437zm0 0" fill="#deecf1"/><path d="m311.699219 312.195312c-64.5 64.5-168.898438 64.5-233.398438 0s-64.5-168.898437 0-233.398437zm0 0" fill="#c6e2e7"/><path d="m290.460938 100.039062c52.609374 52.605469 52.609374 138.308594 0 190.917969-52.605469 52.609375-138.308594 52.609375-190.917969 0s-52.609375-138.3125 0-190.917969c52.609375-52.609374 138.3125-52.609374 190.917969 0zm0 0" fill="#ff6c6c"/><path d="m99.542969 100.039062 190.917969 190.917969c-52.605469 52.609375-138.308594 52.609375-190.917969 0s-52.609375-138.308593 0-190.917969zm0 0" fill="#ff4949"/><path d="m396.527344 333.382812 102.269531 102.269532c17.605469 17.605468 17.605469 46.03125 0 63.640625-17.609375 17.605469-46.035156 17.605469-63.640625 0l-102.265625-102.269531c-5.941406-5.941407-5.941406-15.273438 0-21.214844l42.425781-42.425782c5.9375-5.941406 15.273438-5.941406 21.210938 0zm0 0" fill="#6e6e6e"/><path d="m332.890625 375.808594 21.210937-21.210938 144.695313 144.691406c-17.609375 17.609376-46.035156 17.605469-63.640625 0l-102.265625-102.265624c-5.941406-5.941407-5.941406-15.273438 0-21.214844zm0 0" fill="#444"/><path d="m209.972656 255.496094c0 8.285156-6.71875 15-15 15-8.285156 0-15-6.714844-15-15s6.714844-15 15-15c8.28125 0 15 6.714844 15 15zm0 0" fill="#c6e2e7"/><path d="m240 165.496094c0 19.5-12.597656 36.300781-30 42.296875v2.703125c0 8.398437-6.898438 15-15 15-8.402344 0-15-6.601563-15-15v-15c0-4.199219 1.800781-7.800782 4.199219-10.800782 3-2.398437 6.601562-4.199218 10.800781-4.199218 8.402344 0 15-6.601563 15-15 0-8.402344-6.597656-15-15-15s-15 6.597656-15 15c0 4.199218-1.800781 7.800781-4.199219 10.800781-3 2.398437-6.601562 4.199219-10.800781 4.199219-8.402344 0-15-6.601563-15-15 0-4.5.601562-8.699219 2.101562-12.902344 5.398438-18.597656 22.5-32.097656 42.898438-32.097656 24.902344 0 45 20.097656 45 45zm0 0" fill="#deecf1"/><g fill="#c6e2e7"><path d="m152.101562 152.59375 23.699219 23.703125c-3 2.398437-6.601562 4.199219-10.800781 4.199219-8.402344 0-15-6.601563-15-15 0-4.5.601562-8.699219 2.101562-12.902344zm0 0"/><path d="m210 210.496094c0 8.398437-6.898438 15-15 15-8.402344 0-15-6.601563-15-15v-15c0-4.199219 1.800781-7.800782 4.199219-10.800782zm0 0"/></g>
	</symbol>

	<!-- chat start chat -->
	<symbol id="startChat" viewBox="0 0 505.231 505.231">
		<g><path d="m299.26 299.211c-56.596 55.366-138.94 63.221-202.42 25.68-93.313-55.147-109.978-183.683-33.51-260.72 70.29-68.721 173.97-62.371 235.92-.44 65.03 65.02 65.03 170.449.01 235.48z" fill="#ecf9fd"/><path d="m299.26 299.211c-33.724 32.974-74.498 48.345-116.04 48.76v-333c42.04.43 83.94 16.68 116.03 48.76 65.03 65.02 65.03 170.449.01 235.48z" fill="#d9f3fc"/><path d="m275.93 276.411v42.03c-57.071 39.29-130.913 39.066-186.95 1.49v-43.52c0-22.06 17.94-40 40-40h106.95c22.06 0 40 17.94 40 40z" fill="#f66"/><path d="m275.93 276.411v42.03c-28.31 19.49-60.58 29.2-92.71 29.56v-111.59h52.71c22.06 0 40 17.94 40 40z" fill="#e62e6b"/><ellipse cx="180.74" cy="176.03" fill="#ffd5b6" rx="82.96" ry="91.39"/><path d="m263.7 176.03c0 49.48-35.87 89.9-80.48 91.35v-182.7c44.61 1.451 80.48 41.861 80.48 91.35z" fill="#ffc896"/><path d="m255.75 137.01c-37.523 38.723-102.715 51.693-157.96 40.15-1.321-48.852 36.613-94.254 85.43-92.48 32.03 1.04 59.55 22.181 72.53 52.33z" fill="#fed843"/><path d="m255.75 137.01c-17.5 18.06-42.86 31.9-72.53 38.98v-91.31c32.03 1.04 59.55 22.181 72.53 52.33z" fill="#fabe2c"/><path d="m309.86 53.121c-70.727-70.707-185.855-70.835-256.69 0-34.261 34.242-53.17 79.823-53.17 128.349 0 100.307 81.187 181.5 181.51 181.5 47.523 0 93.128-18.153 127.91-52.71 74.286-75.934 68.325-189.255.44-257.139zm-21.21 235.48c-26.03 26.608-64.241 43.845-105.43 44.3-84.104.919-153.199-66.657-153.22-151.431.021-86.107 71.113-152.907 153.22-151.5 39.84.44 77.21 16.15 105.43 44.36 59.07 59.081 59.07 155.2 0 214.271z" fill="#c9885b"/><path d="m309.864 288.602 57.41 57.41c-13.258 13.275-8.415 8.429-21.206 21.22l-57.417-57.417z" fill="#ecf9fd"/><path d="m309.864 288.602 57.41 57.41-11.045 11.059-57.417-57.417z" fill="#d9f3fc"/><path d="m309.86 309.811c-31.396 32.092-76.998 52.712-126.64 53.15v-30.06c133.232-1.471 200.352-163.632 105.43-258.57-28.22-28.21-65.59-43.92-105.43-44.36v-29.921c45.91.43 91.68 18.12 126.64 53.07 70.77 70.77 70.77 185.93 0 256.691z" fill="#895140"/><path d="m359.33 320.233h97.99v176.1h-97.99z" fill="#c9885b" transform="matrix(.707 -.707 .707 .707 -169.104 408.313)"/><path d="m400.617 303.131h49.62v176.1h-49.62z" fill="#895140" transform="matrix(.707 -.707 .707 .707 -152.003 415.397)"/></g>
	</symbol>

	<!-- external link symbol {used in : payment modal} -->
	<symbol id="external" viewBox="0 0 194.818 194.818">
		<g>
			<path d="M185.818,2.161h-57.04c-4.971,0-9,4.029-9,9s4.029,9,9,9h35.312l-86.3,86.3c-3.515,3.515-3.515,9.213,0,12.728
				c1.758,1.757,4.061,2.636,6.364,2.636s4.606-0.879,6.364-2.636l86.3-86.3v35.313c0,4.971,4.029,9,9,9s9-4.029,9-9v-57.04
				C194.818,6.19,190.789,2.161,185.818,2.161z"/>
			<path d="M149,77.201c-4.971,0-9,4.029-9,9v88.456H18v-122h93.778c4.971,0,9-4.029,9-9s-4.029-9-9-9H9c-4.971,0-9,4.029-9,9v140
				c0,4.971,4.029,9,9,9h140c4.971,0,9-4.029,9-9V86.201C158,81.23,153.971,77.201,149,77.201z"/>
		</g>	
	</symbol>

	<!-- payment modal back long arrow -->
    <symbol id="back" viewBox="0 0 64 64">
        <path
            d="m54 30h-39.899l15.278-14.552c.8-.762.831-2.028.069-2.828-.761-.799-2.027-.831-2.828-.069l-17.448 16.62c-.755.756-1.172 1.76-1.172 2.829 0 1.068.417 2.073 1.207 2.862l17.414 16.586c.387.369.883.552 1.379.552.528 0 1.056-.208 1.449-.621.762-.8.731-2.065-.069-2.827l-15.342-14.552h39.962c1.104 0 2-.896 2-2s-.896-2-2-2z" />
    </symbol>

	<!-- user ICO page chart -->
	<symbol id="chart" viewBox="0 0 1024 1024">
		<path d="M888 792H200V168c0-4.4-3.6-8-8-8h-56c-4.4 0-8 3.6-8 8v688c0 4.4 3.6 8 8 8h752c4.4 0 8-3.6 8-8v-56c0-4.4-3.6-8-8-8zm-616-64h536c4.4 0 8-3.6 8-8V284c0-7.2-8.7-10.7-13.7-5.7L592 488.6l-125.4-124a8.03 8.03 0 0 0-11.3 0l-189 189.6a7.87 7.87 0 0 0-2.3 5.6V720c0 4.4 3.6 8 8 8z"/>
	</symbol>

	<!-- user trade buy / sell (bull and bear) -->
	<symbol id="buy" viewBox="0 0 64 64">
		<path d="m58.847 45.458-6.953-13.905c-.065-.129-.157-.243-.27-.333l-3.423-2.739 1.922-.481h1.877c6.065 0 11-4.935 11-11 0-.347-.18-.668-.474-.851-.295-.182-.663-.198-.973-.044l-1.95.975c-2.512 1.256-5.323 1.92-8.131 1.92-1.463 0-2.928-.346-4.236-1-2.617-1.309-5.855-1.309-8.473 0l-.422.211c-1.031.516-2.187.789-3.341.789h-4.533c-2.061-1.293-4.456-2-6.931-2-2.501 0-4.536 2.035-4.536 4.536 0 1.211.472 2.351 1.329 3.207l.645.645-4.613 3.845 1.28 1.536 4.786-3.988c2.368 2.074 5.367 3.219 8.573 3.219l-.029-2c-2.938 0-5.701-1.144-7.778-3.222l-1.45-1.45c-.479-.478-.743-1.115-.743-1.792 0-.169.018-.334.05-.494 3.152.202 6.09 1.513 8.344 3.766l.899.899 1.414-1.414-.899-.899c-2.268-2.269-5.14-3.704-8.249-4.193.307-.129.645-.201 1.002-.201 2.624 0 5.166.94 7.159 2.648l.821.704c1.992 1.708 4.535 2.648 7.158 2.648h.301v-2h-.301c-2.056 0-4.047-.713-5.644-2h1.945c1.463 0 2.928-.346 4.236-1l.422-.211c2.064-1.032 4.619-1.032 6.684 0 1.584.792 3.358 1.211 5.13 1.211 3.117 0 6.237-.737 9.025-2.13l.342-.171c-.796 4.153-4.457 7.301-8.839 7.301h-2c-.082 0-.163.01-.243.03l-4 1c-.369.092-.653.386-.734.757-.081.372.056.757.353.994l4.828 3.863 6.902 13.804c.032.062.07.122.114.178l3.688 4.61c-.537 1.987-1.558 3.8-2.937 5.321l-3.935-3.935c.177-.923.99-1.622 1.964-1.622v-2c-2.206 0-4 1.794-4 4 0 .266.105.52.293.707l4.293 4.293-2.414 2.414c-.379.378-.881.586-1.415.586h-.257c-.626 0-1.224-.299-1.6-.8l-2.1-2.8c-.147-.197-.362-.333-.604-.381l-.376-.075c-5.85-1.17-11.042-4.728-14.246-9.762l-1.73-2.72-1.688 1.074 1.73 2.72c.966 1.518 2.103 2.907 3.37 4.158-2.105 2.514-3.256 5.652-3.256 8.971v1.615h2v-1.615c0-2.815.963-5.48 2.732-7.622 3.059 2.557 6.739 4.352 10.696 5.143l1.872 2.494c.751 1.001 1.947 1.6 3.2 1.6h.257c1.068 0 2.072-.416 2.829-1.172l3.379-3.379c1.922-1.921 3.286-4.331 3.946-6.969l.06-.238c.076-.303.005-.623-.189-.867z"/><path d="m47.555 34.168-1.488-.992c-1.154-.769-2.497-1.176-3.884-1.176h-.366c-.991 0-1.95-.291-2.774-.84l-1.488-.992-1.109 1.664 1.297.864c-.474.669-.743 1.469-.743 2.304 0 2.206 1.794 4 4 4s4-1.794 4-4c0-.046-.007-.091-.009-.138l1.454.97zm-6.555 2.832c-1.103 0-2-.897-2-2 0-.522.212-1.012.571-1.383.72.245 1.474.383 2.246.383h.366c.191 0 .38.02.568.042.16.292.249.621.249.958 0 1.103-.897 2-2 2z"/><path d="m7 11h-2.755l6.755-7.505 6.755 7.505h-2.755c-.552 0-1 .448-1 1v25h2v-24h4c.395 0 .753-.232.914-.593s.094-.782-.17-1.076l-9-10c-.379-.422-1.107-.422-1.486 0l-9 10c-.264.293-.331.715-.17 1.076s.517.593.912.593h4v40h2v-41c0-.552-.448-1-1-1z"/><path d="m10 12h2v33h-2z"/><path d="m21.743 40.331c-.379-.422-1.107-.422-1.486 0l-9 10c-.264.294-.331.715-.17 1.076.16.361.518.593.913.593h4v11h2v-12c0-.553-.448-1-1-1h-2.755l6.755-7.505 6.755 7.505h-2.755c-.552 0-1 .447-1 1v6h2v-5h4c.395 0 .753-.232.914-.593s.094-.782-.17-1.076z"/><path d="m20 51h2v10h-2z"/>
	</symbol>

	<symbol id="sell" viewBox="0 0 64 64">
		<path d="m42.514 49.126-8.773 4.874h-7.636c-2.588 0-5.106-.517-7.484-1.536l-1.313-.562c-1.334-.572-2.732-1.006-4.153-1.29l-4.488-.897c-1.93-.387-3.618-1.575-4.669-3.328-.075-.126-.131-.259-.198-.387h4.2c1.654 0 3-1.346 3-3s-1.346-3-3-3h-1v2h1c.551 0 1 .448 1 1s-.449 1-1 1h-4.88c-.071-.401-.12-.806-.12-1.216v-2.238l10.979-7.058c1.853-1.191 3.264-2.901 4.081-4.945.509-1.272 1.328-2.416 2.368-3.307l.168-.144c3.078-2.638 7.007-4.092 11.063-4.092h.498c-.098.566-.157 1.142-.157 1.728v3.272h2v-3.272c0-2.137.832-4.146 2.343-5.657l.121-.121c.285-.285.617-.504.974-.663-.954 2.745-1.438 5.608-1.438 8.527v.186h2v-.186c0-2.983.557-5.9 1.635-8.678 1.36.386 2.365 1.625 2.365 3.107v1.756c0 .5-.118 1.002-.342 1.45l-2.552 5.104 1.789.895 2.552-5.104c.362-.725.553-1.536.553-2.345v-1.756c0-2.891-2.352-5.243-5.243-5.243-1.4 0-2.717.545-3.707 1.536l-.121.121c-.971.97-1.713 2.107-2.209 3.343h-1.061c-4.533 0-8.924 1.625-12.365 4.574l-.168.144c-1.284 1.1-2.294 2.512-2.923 4.082-.662 1.656-1.805 3.041-3.305 4.005l-11.439 7.354c-.286.184-.459.501-.459.841v2.784c0 1.631.443 3.232 1.322 4.696 1.301 2.169 3.471 3.697 5.952 4.194l4.488.897c1.286.258 2.551.65 3.758 1.167l1.312.562c2.629 1.129 5.412 1.7 8.273 1.7h7.481l1.071 1.071c1.511 1.511 2.343 3.52 2.343 5.657v.272h2v-.272c0-2.671-1.041-5.182-2.929-7.07l-.427-.427 7.842-4.356z"/><path d="m62.914 41.593c-.161-.361-.519-.593-.914-.593h-4v-40h-2v41c0 .553.448 1 1 1h2.755l-6.755 7.505-6.755-7.505h2.755c.552 0 1-.447 1-1v-25h-2v24h-4c-.395 0-.753.232-.914.593s-.094.782.17 1.076l9 10c.19.211.46.331.744.331s.554-.12.743-.331l9-10c.264-.294.331-.715.171-1.076z"/><path d="m52 9h2v33h-2z"/><path d="m10.257 28.669c.189.211.459.331.743.331s.554-.12.743-.331l9-10c.264-.293.331-.715.17-1.076s-.518-.593-.913-.593h-4v-16h-2v17c0 .552.448 1 1 1h2.755l-6.755 7.505-6.755-7.505h2.755c.552 0 1-.448 1-1v-9h-2v8h-4c-.395 0-.753.232-.914.593s-.094.782.17 1.076z"/><path d="m10 5h2v13h-2z"/><path d="m29.445 27.168-1.488.992c-.824.549-1.783.84-2.774.84h-.366c-1.387 0-2.729.407-3.883 1.176l-1.488.992 1.109 1.664 1.454-.97c-.002.046-.009.092-.009.138 0 2.206 1.794 4 4 4s4-1.794 4-4c0-.835-.269-1.634-.742-2.303l1.297-.865zm-3.445 6.832c-1.103 0-2-.897-2-2 0-.336.089-.666.249-.958.188-.022.377-.042.568-.042h.366c.772 0 1.526-.138 2.246-.383.359.372.571.862.571 1.383 0 1.103-.897 2-2 2z"/>
	</symbol>
</svg>
