<?xml version="1.0" standalone="no"?>
<!DOCTYPE svg PUBLIC "-//W3C//DTD SVG 20010904//EN"
 "http://www.w3.org/TR/2001/REC-SVG-20010904/DTD/svg10.dtd">
<svg version="1.0" xmlns="http://www.w3.org/2000/svg"
 width="506.000000pt" height="506.000000pt" viewBox="0 0 506.000000 506.000000"
 preserveAspectRatio="xMidYMid meet">
<metadata>
Created by potrace 1.11, written by Peter Selinger 2001-2013
</metadata>
<g transform="translate(0.000000,506.000000) scale(0.100000,-0.100000)"
fill="#000000" stroke="none">
<path d="M2392 4240 c-67 -137 -122 -254 -122 -260 0 -5 -4 -10 -10 -10 -5 0
-10 -5 -10 -11 0 -6 -37 -86 -82 -178 -45 -91 -83 -168 -83 -171 -1 -3 -31
-65 -67 -137 -37 -73 -64 -133 -60 -133 4 0 2 -4 -3 -8 -6 -4 -23 -34 -39 -67
-15 -33 -32 -69 -38 -80 -6 -11 -15 -27 -19 -35 -5 -8 -55 -112 -113 -230 -57
-118 -161 -332 -231 -475 -69 -143 -136 -280 -148 -305 -12 -25 -25 -46 -29
-48 -5 -2 -8 -9 -8 -16 0 -8 -32 -77 -70 -155 -39 -77 -70 -145 -70 -151 0 -5
-5 -10 -10 -10 -6 0 -9 -3 -8 -7 1 -5 -38 -89 -87 -188 -49 -99 -89 -183 -89
-187 -1 -4 -7 -13 -14 -20 -6 -6 -12 -17 -12 -22 0 -6 -61 -133 -135 -283 -74
-151 -135 -278 -135 -283 0 -6 -5 -10 -12 -10 -6 0 -9 -3 -5 -6 3 -3 -5 -26
-19 -51 -13 -25 -24 -47 -24 -48 0 -5 1288 3 1330 8 37 5 136 24 210 42 88 21
262 104 295 140 6 6 22 19 37 28 39 24 130 137 166 205 61 115 89 238 88 380
l-1 97 -320 1 c-176 1 -323 2 -326 3 -4 0 15 45 41 99 26 53 60 124 75 157 15
33 51 110 80 170 71 148 114 241 169 358 42 91 66 116 66 67 0 -10 3 -20 8
-22 4 -1 50 -88 103 -193 141 -276 211 -412 248 -477 18 -32 29 -58 24 -58 -4
0 -3 -4 3 -8 7 -4 23 -27 36 -52 14 -25 40 -72 58 -105 145 -264 291 -506 311
-513 5 -2 9 -8 9 -13 0 -12 95 -101 141 -132 38 -26 146 -86 154 -87 3 0 22
-7 42 -15 59 -25 160 -49 253 -60 92 -11 286 -7 360 9 8 1 36 6 63 11 26 4 49
11 52 14 2 4 -11 39 -30 77 -19 38 -35 75 -35 82 0 6 -4 12 -8 12 -4 0 -21 29
-37 65 -16 36 -32 65 -37 65 -4 0 -7 3 -5 8 2 6 -332 681 -343 692 -6 6 -93
182 -95 190 0 3 -5 12 -10 20 -14 23 -64 129 -64 137 0 3 -3 9 -8 12 -8 6
-113 214 -699 1381 -136 272 -252 497 -256 498 -4 2 -8 9 -8 15 0 15 -112 240
-123 248 -5 3 -8 9 -8 13 2 10 -103 221 -112 224 -4 2 -5 7 -2 12 3 4 -1 13
-8 18 -10 9 -39 -43 -135 -238z"/>
</g>
</svg>
