<svg width="112" height="24" viewBox="0 0 112 24" fill="none" xmlns="http://www.w3.org/2000/svg">
<path d="M23.0337 14.5219C21.4719 20.7861 15.1273 24.5984 8.86242 23.0363C2.60005 21.4745 -1.21226 15.1296 0.350229 8.86575C1.91125 2.60083 8.25585 -1.21184 14.5189 0.349914C20.7835 1.91167 24.5954 8.25735 23.0337 14.5219Z" fill="#F7931A"/>
<path d="M16.8473 10.0273C17.0801 8.47143 15.8954 7.63501 14.2756 7.07703L14.801 4.96935L13.5181 4.64962L13.0065 6.70175C12.6692 6.61771 12.3228 6.53842 11.9786 6.45985L12.4938 4.3942L11.2116 4.07446L10.6858 6.1814C10.4066 6.11782 10.1326 6.05498 9.86656 5.98884L9.86802 5.98226L8.09872 5.54048L7.75743 6.91076C7.75743 6.91076 8.70931 7.12891 8.68922 7.14243C9.20883 7.27215 9.30273 7.616 9.28702 7.88859L8.68848 10.2897C8.72429 10.2988 8.7707 10.312 8.82186 10.3324C8.77911 10.3219 8.73343 10.3102 8.68629 10.2988L7.84731 13.6624C7.78373 13.8203 7.62259 14.0571 7.25938 13.9672C7.27216 13.9858 6.32685 13.7344 6.32685 13.7344L5.68994 15.203L7.35949 15.6192C7.67009 15.697 7.97447 15.7785 8.27411 15.8552L7.74318 17.987L9.02466 18.3068L9.55048 16.1976C9.90054 16.2926 10.2404 16.3803 10.5729 16.4629L10.0489 18.5622L11.3318 18.8819L11.8628 16.7541C14.0505 17.1681 15.6956 17.0011 16.388 15.0225C16.946 13.4293 16.3602 12.5103 15.2092 11.911C16.0474 11.7177 16.6789 11.1663 16.8473 10.0273ZM13.916 14.1378C13.5195 15.731 10.8371 14.8697 9.96741 14.6538L10.6719 11.8295C11.5416 12.0466 14.3304 12.4763 13.916 14.1378ZM14.3128 10.0043C13.9511 11.4535 11.7184 10.7172 10.9942 10.5367L11.6329 7.9752C12.3572 8.15572 14.6896 8.49261 14.3128 10.0043Z" fill="white"/>
<path d="M34.2664 7.0748C35.2146 7.0748 36.0339 7.24471 36.7223 7.57833C37.414 7.91523 37.9848 8.36907 38.4426 8.93984C38.8943 9.51353 39.2304 10.1841 39.4475 10.9525C39.6631 11.7232 39.7713 12.5515 39.7713 13.4384C39.7713 14.8006 39.5217 16.0876 39.0178 17.3008C38.5139 18.5157 37.8302 19.5696 36.9605 20.4685C36.0916 21.3663 35.0655 22.0741 33.8823 22.597C32.701 23.1202 31.4166 23.3819 30.0375 23.3819C29.8592 23.3819 29.5457 23.3768 29.1028 23.3676C28.6599 23.3585 28.1509 23.3128 27.5809 23.2357C27.0072 23.1557 26.4006 23.0373 25.76 22.8787C25.1198 22.723 24.5118 22.5049 23.9392 22.2279L29.0593 0.71414L33.6452 0.00341797L31.8119 7.6379C32.2044 7.46104 32.5997 7.324 32.9944 7.22425C33.3894 7.12595 33.8133 7.0748 34.2664 7.0748ZM30.4197 19.7439C31.1103 19.7439 31.7611 19.574 32.3725 19.2403C32.9856 18.9064 33.5147 18.4554 33.958 17.8938C34.4012 17.3296 34.752 16.6942 35.0078 15.9842C35.2636 15.2742 35.3929 14.5335 35.3929 13.7629C35.3929 12.8161 35.2347 12.0776 34.9194 11.5437C34.604 11.0121 34.0205 10.7446 33.1731 10.7446C32.8954 10.7446 32.5376 10.7976 32.094 10.8922C31.649 10.9927 31.2507 11.2014 30.8937 11.5152L28.9417 19.6229C29.0593 19.6437 29.1634 19.6635 29.2522 19.6821C29.3392 19.7022 29.4353 19.7165 29.531 19.7263C29.6323 19.7377 29.7481 19.7435 29.8881 19.7435C30.028 19.7435 30.203 19.7439 30.4197 19.7439Z" fill="#4D4D4D"/>
<path d="M44.5271 22.9701H40.147L43.846 7.40481H48.2561L44.5271 22.9701ZM46.6586 5.50834C46.0472 5.50834 45.4929 5.32636 45.0011 4.96169C44.5052 4.5992 44.2596 4.04122 44.2596 3.28921C44.2596 2.87557 44.3437 2.4875 44.5103 2.12136C44.6795 1.75596 44.9006 1.44134 45.1775 1.17386C45.4542 0.908578 45.7746 0.696637 46.1386 0.536954C46.5047 0.379828 46.8942 0.30127 47.3093 0.30127C47.9203 0.30127 48.4717 0.483244 48.9654 0.847921C49.4572 1.21443 49.7046 1.7724 49.7046 2.52039C49.7046 2.9355 49.6209 3.32502 49.4528 3.69043C49.2858 4.05584 49.0648 4.37045 48.7878 4.63793C48.5134 4.90358 48.19 5.11479 47.8268 5.27301C47.4603 5.43269 47.0722 5.50834 46.6586 5.50834Z" fill="#4D4D4D"/>
<path d="M52.0946 3.52688L56.6823 2.81616L55.5557 7.40423H60.469L59.5818 11.0137H54.6981L53.3973 16.4583C53.2774 16.9122 53.2094 17.336 53.1904 17.7299C53.1689 18.1257 53.219 18.4655 53.3373 18.7516C53.455 19.0385 53.6666 19.2595 53.9735 19.4159C54.279 19.5749 54.7164 19.6549 55.2901 19.6549C55.7626 19.6549 56.223 19.61 56.668 19.5208C57.1105 19.4331 57.5589 19.3111 58.0127 19.1514L58.3394 22.5263C57.7475 22.7433 57.1065 22.9301 56.4159 23.0872C55.7242 23.2465 54.9053 23.3232 53.9589 23.3232C52.5981 23.3232 51.5432 23.1212 50.7915 22.7189C50.041 22.3136 49.5104 21.76 49.1929 21.0592C48.8797 20.3609 48.7398 19.5559 48.7789 18.6489C48.8194 17.7398 48.9565 16.7843 49.1929 15.7779L52.0946 3.52688Z" fill="#4D4D4D"/>
<path d="M60.2761 16.7545C60.2761 15.4139 60.4932 14.1496 60.9269 12.966C61.3599 11.7813 61.9837 10.7454 62.7931 9.85637C63.5995 8.97171 64.5821 8.27086 65.7386 7.75636C66.8897 7.24479 68.1784 6.98682 69.5988 6.98682C70.4878 6.98682 71.2819 7.07086 71.9805 7.23932C72.6821 7.40923 73.3168 7.62884 73.8909 7.90436L72.3803 11.3392C71.9856 11.1792 71.576 11.0381 71.1525 10.9102C70.7286 10.7798 70.2112 10.7169 69.5992 10.7169C68.1372 10.7169 66.9814 11.2208 66.1212 12.2253C65.2643 13.2305 64.8328 14.5837 64.8328 16.281C64.8328 17.2869 65.0498 18.1003 65.4854 18.7226C65.9188 19.3449 66.7194 19.6544 67.8817 19.6544C68.4554 19.6544 69.009 19.5945 69.5392 19.4776C70.0735 19.3592 70.5452 19.2101 70.9607 19.034L71.2877 22.555C70.7337 22.7699 70.1228 22.9639 69.4526 23.1338C68.781 23.2979 67.9815 23.3831 67.0544 23.3831C65.8307 23.3831 64.7948 23.204 63.9474 22.8514C63.0996 22.4933 62.3991 22.0179 61.8474 21.4157C61.2927 20.812 60.8944 20.1072 60.6481 19.2982C60.4018 18.4899 60.2761 17.6407 60.2761 16.7545Z" fill="#4D4D4D"/>
<path d="M79.7344 23.3831C78.689 23.3831 77.7809 23.2237 77.0106 22.9084C76.2426 22.593 75.6064 22.1505 75.1032 21.5768C74.5993 21.0061 74.2222 20.3297 73.9639 19.5503C73.7055 18.7712 73.5813 17.9085 73.5813 16.9632C73.5813 15.7774 73.7717 14.5921 74.1565 13.41C74.5394 12.2253 75.1076 11.1609 75.8596 10.2148C76.6058 9.26734 77.5262 8.49266 78.61 7.88864C79.6928 7.28864 80.9381 6.98682 82.3368 6.98682C83.3633 6.98682 84.2666 7.1465 85.0474 7.46184C85.8247 7.77646 86.4649 8.22263 86.971 8.7934C87.4716 9.36709 87.8519 10.0405 88.1077 10.8211C88.3653 11.5986 88.4925 12.4636 88.4925 13.4096C88.4925 14.5917 88.3047 15.7771 87.932 16.9628C87.5589 18.1427 87.0053 19.2097 86.2745 20.158C85.5451 21.104 84.6331 21.8783 83.5376 22.4798C82.4436 23.0812 81.1748 23.3831 79.7344 23.3831ZM81.9236 10.7173C81.2742 10.7173 80.7002 10.9058 80.2087 11.2782C79.7154 11.6549 79.301 12.1285 78.967 12.6996C78.6294 13.2733 78.3791 13.8989 78.2099 14.5789C78.0422 15.2604 77.96 15.9046 77.96 16.5167C77.96 17.5044 78.1193 18.2736 78.4325 18.8271C78.75 19.3778 79.3204 19.6548 80.1495 19.6548C80.801 19.6548 81.3722 19.4677 81.8666 19.0913C82.3569 18.7175 82.7717 18.2436 83.1082 17.6714C83.4437 17.1006 83.6962 16.4732 83.8653 15.7921C84.0309 15.1128 84.1153 14.4649 84.1153 13.8539C84.1153 12.8688 83.9567 12.0978 83.6406 11.5449C83.3249 10.9942 82.752 10.7173 81.9236 10.7173Z" fill="#4D4D4D"/>
<path d="M93.2649 22.9701H88.8811L92.5801 7.40481H96.9924L93.2649 22.9701ZM95.393 5.50834C94.7821 5.50834 94.2281 5.32636 93.737 4.96169C93.2437 4.5992 92.996 4.04122 92.996 3.28921C92.996 2.87557 93.0811 2.4875 93.2481 2.12136C93.4151 1.75596 93.6376 1.44134 93.9146 1.17386C94.1897 0.908578 94.5131 0.696637 94.8764 0.536954C95.2403 0.379828 95.6298 0.30127 96.0435 0.30127C96.6559 0.30127 97.2091 0.483244 97.7017 0.847921C98.1946 1.21443 98.4435 1.7724 98.4435 2.52039C98.4435 2.9355 98.355 3.32502 98.1895 3.69043C98.024 4.05584 97.8014 4.37045 97.5256 4.63793C97.2479 4.90358 96.9285 5.11479 96.5645 5.27301C96.1977 5.43269 95.8089 5.50834 95.393 5.50834Z" fill="#4D4D4D"/>
<path d="M100.149 8.11253C100.482 8.01533 100.853 7.8984 101.257 7.77124C101.662 7.64408 102.115 7.52569 102.621 7.41899C103.121 7.309 103.686 7.21984 104.306 7.15078C104.927 7.08025 105.635 7.0459 106.421 7.0459C108.731 7.0459 110.323 7.71862 111.202 9.06004C112.081 10.4015 112.233 12.2373 111.663 14.5642L109.648 22.9686H105.239L107.192 14.741C107.311 14.2273 107.404 13.7307 107.473 13.2454C107.543 12.7645 107.539 12.3407 107.458 11.9738C107.38 11.6113 107.196 11.3146 106.912 11.0848C106.623 10.8586 106.186 10.7449 105.594 10.7449C105.023 10.7449 104.442 10.8063 103.849 10.9247L100.977 22.9682H96.5667L100.149 8.11253Z" fill="#4D4D4D"/>
</svg>
