<svg width="56" height="40" viewBox="0 0 56 40" fill="none" xmlns="http://www.w3.org/2000/svg">
<path d="M3.82014 29.2727H3.31909L2.81941 32.0674H3.30609C4.45945 32.0674 4.97419 31.4678 4.97419 30.3432C4.97419 29.6341 4.58471 29.2727 3.82014 29.2727ZM3.18014 33.5535H2.55452L1.94464 37.054H0L1.63798 27.7866H4.20824C5.72234 27.7866 7.02903 28.3712 7.02903 30.1762C7.02903 32.511 5.47318 33.5535 3.18014 33.5535Z" fill="#176FC1"/>
<path d="M10.1742 32.1353C9.45618 32.1353 8.75115 33.3311 8.75115 34.6481C8.75115 35.3264 8.91201 35.7248 9.2433 35.7248C9.81485 35.7248 10.6267 34.4215 10.9319 32.7199L10.9853 32.4276C10.8655 32.3331 10.6657 32.1353 10.1742 32.1353ZM11.9559 37.0541H10.1612L10.3214 36.1225C10.0168 36.6016 9.56296 37.1882 8.53964 37.1882C7.68745 37.1882 6.86401 36.5215 6.86401 34.848C6.86401 32.4413 8.28707 30.6719 9.93395 30.6719C10.8655 30.6719 11.2105 31.0573 11.3317 31.1777L11.3974 30.806H13.06L11.9559 37.0541Z" fill="#176FC1"/>
<path d="M16.9665 36.6692C16.05 38.5023 15.1335 39.579 13.0054 39.8459L12.8069 38.5434C13.618 38.2901 14.4414 37.8794 14.8946 36.9601L15.0787 36.5878L13.9904 30.8059H15.8919L16.3697 34.2085L17.9385 30.8059H19.9187L16.9665 36.6692Z" fill="#176FC1"/>
<path d="M28.6147 37.054H26.82L27.551 32.9326C27.603 32.6677 27.5907 32.4008 27.2861 32.4008C26.7269 32.4008 25.7289 33.7308 25.451 35.3263L25.1457 37.054H23.3482L24.082 32.9326C24.1334 32.6677 24.1224 32.4008 23.8151 32.4008C23.2565 32.4008 22.2606 33.7308 21.9793 35.3263L21.6747 37.054H19.8806L20.9833 30.8059H22.7774L22.5255 32.2687C22.9245 31.6157 23.5495 30.6718 24.6255 30.6718C25.5961 30.6718 26.0225 31.2974 25.9548 32.2954C26.3004 31.7218 26.9528 30.6718 28.0959 30.6718C29.1999 30.6718 29.5983 31.4836 29.3718 32.7588L28.6147 37.054Z" fill="#176FC1"/>
<path d="M33.8388 31.9485C33.281 31.9485 32.7484 32.6542 32.5355 33.6645C33.719 33.505 34.4371 33.2264 34.4371 32.533C34.4371 32.1353 34.1968 31.9485 33.8388 31.9485ZM32.4425 34.6892C32.4698 35.3778 32.7628 35.7248 33.3604 35.7248C34.0517 35.7248 34.715 35.3654 35.2085 35.0608L35.7006 36.2299C35.2879 36.5359 34.3974 37.1882 33.1085 37.1882C31.7121 37.1882 30.5957 36.5106 30.5957 34.6221C30.5957 32.4276 31.8045 30.6719 33.9333 30.6719C35.5281 30.6719 36.2188 31.3646 36.2188 32.4276C36.2188 34.1559 34.8094 34.5687 32.4425 34.6892Z" fill="#176FC1"/>
<path d="M42.1746 37.054H40.3798L41.1109 32.9326C41.1649 32.6677 41.1513 32.4008 40.846 32.4008C40.2874 32.4008 39.2894 33.7308 39.0109 35.3263L38.7063 37.054H36.9102L38.0136 30.8059H39.809L39.5571 32.2687C39.9555 31.6157 40.5797 30.6718 41.6564 30.6718C42.7598 30.6718 43.1582 31.4836 42.9344 32.7588L42.1746 37.054Z" fill="#176FC1"/>
<path d="M47.7592 32.1353H46.829L46.2848 35.219C46.2287 35.4859 46.3224 35.6173 46.5223 35.6173C46.7085 35.6173 46.8556 35.566 47.0288 35.4859L47.2136 36.7214C46.9474 36.8946 46.4422 37.1882 45.7242 37.1882C44.7946 37.1882 44.2505 36.6016 44.4743 35.3401L45.0342 32.1353H44.3689L44.6064 30.806H45.2724L45.6441 29.4501L47.3738 29.077L47.0665 30.806H47.9981L47.7592 32.1353Z" fill="#176FC1"/>
<path d="M52.771 32.7071C52.3863 32.4408 51.7737 32.1492 51.2973 32.1492C50.9235 32.1492 50.6703 32.2813 50.6703 32.5873C50.6703 32.8659 50.9509 32.9877 51.3233 33.1451L51.6682 33.2916C52.3062 33.5572 53.0119 33.9823 53.0119 35.0994C53.0119 36.4286 52.3062 37.1877 50.7106 37.1877C49.4087 37.1877 48.649 36.6148 48.1719 36.2705L48.8755 35.0343C49.3417 35.378 50.072 35.7106 50.5518 35.7106C50.9646 35.7106 51.135 35.5655 51.135 35.2595C51.135 34.9536 50.8434 34.8194 50.4718 34.6736L50.1124 34.5292C49.4758 34.2759 48.7961 33.8502 48.7961 32.7454C48.7961 31.3107 49.9016 30.6721 51.2822 30.6721C52.3993 30.6721 53.092 31.2313 53.4096 31.4688L52.771 32.7071Z" fill="#176FC1"/>
<path d="M28.6334 20.1287H24.7571L24.3806 22.2835H27.3828L27.1042 23.8811H24.1041L23.4087 27.7991H21.4626L23.1041 18.5318H28.9243L28.6334 20.1287Z" fill="#176FC1"/>
<path d="M31.0834 22.879C30.3654 22.879 29.6603 24.0762 29.6603 25.3917C29.6603 26.0708 29.8198 26.4691 30.1525 26.4691C30.724 26.4691 31.5358 25.1672 31.8397 23.4649L31.8945 23.1726C31.7754 23.0789 31.5762 22.879 31.0834 22.879ZM32.8637 27.7984H31.069L31.2292 26.8675C30.9239 27.3466 30.4721 27.9319 29.4475 27.9319C28.5966 27.9319 27.7732 27.2666 27.7732 25.593C27.7732 23.1856 29.1962 21.4169 30.8424 21.4169C31.7754 21.4169 32.1197 21.803 32.2402 21.9221L32.3066 21.5504H33.9685L32.8637 27.7984Z" fill="#176FC1"/>
<path d="M38.9434 23.4517C38.5566 23.1854 37.9454 22.8924 37.4669 22.8924C37.0946 22.8924 36.8413 23.0266 36.8413 23.3312C36.8413 23.6105 37.122 23.7296 37.4923 23.8897L37.8379 24.0369C38.4766 24.3025 39.1816 24.7262 39.1816 25.8439C39.1816 27.1746 38.4766 27.9316 36.8817 27.9316C35.5784 27.9316 34.8221 27.3601 34.3416 27.0158L35.0479 25.7782C35.5113 26.1232 36.2437 26.4559 36.7222 26.4559C37.1322 26.4559 37.3074 26.3101 37.3074 26.0041C37.3074 25.6982 37.0145 25.5654 36.6421 25.4182L36.2835 25.2731C35.6462 25.0198 34.9672 24.5954 34.9672 23.4914C34.9672 22.056 36.0713 21.4174 37.4532 21.4174C38.569 21.4174 39.261 21.9752 39.5806 22.2134L38.9434 23.4517Z" fill="#176FC1"/>
<path d="M43.927 22.879H42.9968L42.4506 25.9653C42.3986 26.2302 42.4903 26.3637 42.6895 26.3637C42.877 26.3637 43.0228 26.3096 43.1953 26.2302L43.3801 27.4657C43.1146 27.6396 42.6094 27.9319 41.8927 27.9319C40.9632 27.9319 40.4163 27.3466 40.6435 26.0844L41.2021 22.879H40.5354L40.7757 21.5504H41.4403L41.8127 20.1944L43.541 19.8214L43.2343 21.5504H44.1659L43.927 22.879Z" fill="#176FC1"/>
<path d="M47.6894 22.6935C47.1315 22.6935 46.5983 23.3978 46.3875 24.4074C47.5703 24.2486 48.2876 23.9701 48.2876 23.2787C48.2876 22.879 48.0494 22.6935 47.6894 22.6935ZM46.293 25.4321C46.3204 26.1235 46.6127 26.4691 47.2116 26.4691C47.9036 26.4691 48.5669 26.1105 49.0597 25.8052L49.5512 26.9743C49.1384 27.2803 48.2472 27.9319 46.9583 27.9319C45.5626 27.9319 44.4456 27.2542 44.4456 25.3671C44.4456 23.1726 45.6551 21.4176 47.7845 21.4176C49.378 21.4176 50.0686 22.1089 50.0686 23.1726C50.0686 24.901 48.66 25.313 46.293 25.4321Z" fill="#176FC1"/>
<path d="M55.1486 23.3588C54.2444 23.3588 53.206 24.1295 52.8617 26.0714L52.5557 27.7991H50.761L51.8651 21.5504H53.6194L53.3942 22.8666C53.8042 21.9364 54.2841 21.4176 55.4942 21.4176L55.1486 23.3588Z" fill="#176FC1"/>
<path d="M28.0482 12.888V12.9195C28.0454 13.3657 27.6929 13.8134 26.9948 14.1502L3.59615 25.4833C2.18952 26.1657 1.66931 25.6099 2.43526 24.2491L6.71674 16.6417C7.33757 15.5315 7.69282 14.2515 7.69282 12.888C7.69282 11.5238 7.33757 10.2431 6.71674 9.13423L2.43526 1.52681C1.66931 0.165363 2.18952 -0.390442 3.59615 0.291994L26.9948 11.6244C27.6929 11.9646 28.0454 12.4102 28.0482 12.8565V12.888Z" fill="#176FC1"/>
</svg>
