<svg width="95" height="29" viewBox="0 0 95 29" fill="none" xmlns="http://www.w3.org/2000/svg">
<path d="M46.297 12.9652C46.5479 13.1325 46.9243 13.2579 47.3007 13.2579C47.8862 13.2579 48.2208 12.9652 48.2208 12.5051C48.2208 12.0869 47.9699 11.8778 47.3844 11.6269C46.6734 11.3759 46.2134 10.9995 46.2134 10.3722C46.2134 9.70304 46.7989 9.20117 47.6353 9.20117C48.0954 9.20117 48.3881 9.28482 48.5972 9.41028L48.4299 9.87033C48.3045 9.78668 48.0117 9.66122 47.5935 9.66122C47.008 9.66122 46.757 10.0376 46.757 10.3304C46.757 10.7486 47.008 10.9577 47.6353 11.1668C48.3881 11.4596 48.7227 11.7941 48.7227 12.4633C48.7227 13.1325 48.2208 13.718 47.2171 13.718C46.7989 13.718 46.3388 13.5925 46.0879 13.4252L46.297 12.9652Z" fill="#006972"/>
<path d="M49.894 12.1706C49.894 12.9234 50.3959 13.258 50.9814 13.258C51.3996 13.258 51.6506 13.1743 51.8597 13.0907L51.9433 13.5089C51.7342 13.5925 51.3996 13.718 50.8978 13.718C49.9359 13.718 49.3503 13.0907 49.3503 12.1288C49.3503 11.1669 49.9359 10.4141 50.8141 10.4141C51.8178 10.4141 52.1106 11.3341 52.1106 11.8778C52.1106 12.0033 52.1106 12.0869 52.1106 12.1706H49.894ZM51.5669 11.7942C51.5669 11.4178 51.3996 10.8741 50.7723 10.8741C50.1868 10.8741 49.9359 11.4178 49.894 11.7942H51.5669Z" fill="#006972"/>
<path d="M55.0796 13.5499C54.9123 13.6336 54.5777 13.7172 54.1595 13.7172C53.1976 13.7172 52.6121 13.0899 52.6121 12.128C52.6121 11.1661 53.2812 10.4551 54.2849 10.4551C54.6195 10.4551 54.9123 10.5387 55.0796 10.6224L54.9541 11.0406C54.8286 10.9569 54.6195 10.8733 54.2849 10.8733C53.574 10.8733 53.1557 11.417 53.1557 12.0861C53.1557 12.7971 53.6158 13.2572 54.2431 13.2572C54.5777 13.2572 54.7868 13.1735 54.9541 13.0899L55.0796 13.5499Z" fill="#006972"/>
<path d="M58.3418 12.7971C58.3418 13.1317 58.3418 13.4245 58.3837 13.6336H57.8818L57.84 13.1317C57.7145 13.3826 57.3381 13.7172 56.7944 13.7172C56.2925 13.7172 55.707 13.4245 55.707 12.3371V10.4969H56.2925V12.2116C56.2925 12.7971 56.5017 13.2153 57.0035 13.2153C57.3799 13.2153 57.6727 12.9644 57.7563 12.6717C57.7981 12.588 57.7981 12.5044 57.7981 12.3789V10.4551H58.3837V12.7971" fill="#006972"/>
<path d="M59.3038 11.5008C59.3038 11.1244 59.3038 10.8316 59.262 10.5389H59.7638L59.8057 11.1662C59.9311 10.748 60.3075 10.4971 60.6839 10.4971C60.7257 10.4971 60.8094 10.4971 60.8512 10.4971V11.0408C60.7676 11.0408 60.7257 11.0408 60.6421 11.0408C60.2239 11.0408 59.9729 11.3335 59.8893 11.7517C59.8893 11.8354 59.8893 11.919 59.8893 12.0445V13.7174H59.3038V11.5008Z" fill="#006972"/>
<path d="M61.7294 9.95397C61.5203 9.95397 61.353 9.78668 61.353 9.57757C61.353 9.36846 61.5203 9.20117 61.7294 9.20117C61.9385 9.20117 62.1058 9.36846 62.1058 9.57757C62.1058 9.78668 61.9804 9.95397 61.7294 9.95397ZM62.0222 13.6761H61.4785V10.5395H62.064V13.6761H62.0222Z" fill="#006972"/>
<path d="M63.6535 9.78613V10.5389H64.4899V10.9572H63.6535V12.6719C63.6535 13.0483 63.7789 13.2992 64.0717 13.2992C64.239 13.2992 64.3226 13.2992 64.4063 13.2574L64.4481 13.6756C64.3226 13.7174 64.1553 13.7592 63.9462 13.7592C63.6953 13.7592 63.4862 13.6756 63.3189 13.5083C63.1516 13.341 63.1098 13.0483 63.1098 12.6719V10.9572H62.6079V10.5389H63.1098V9.95342L63.6535 9.78613Z" fill="#006972"/>
<path d="M65.41 10.5389L66.0791 12.3791C66.1628 12.5882 66.2464 12.8391 66.2882 13.0064C66.33 12.8391 66.4137 12.5882 66.4973 12.3372L67.1247 10.4971H67.7102L66.8319 12.7555C66.4137 13.8428 66.1628 14.3865 65.7445 14.7211C65.4518 14.972 65.2008 15.0557 65.0336 15.0975L64.9081 14.6375C65.0336 14.5956 65.2427 14.512 65.41 14.3447C65.5772 14.2192 65.7445 14.0101 65.87 13.7174C65.9118 13.6756 65.9118 13.6337 65.9118 13.5919C65.9118 13.5501 65.9118 13.5083 65.87 13.4664L64.699 10.5807H65.41" fill="#006972"/>
<path d="M46.297 19.4476C46.5479 19.6149 46.9243 19.7403 47.3007 19.7403C47.8862 19.7403 48.2208 19.4476 48.2208 18.9875C48.2208 18.5693 47.9699 18.3602 47.3844 18.1093C46.6734 17.8583 46.2134 17.4819 46.2134 16.8546C46.2134 16.1855 46.7989 15.6836 47.6353 15.6836C48.0954 15.6836 48.3881 15.7672 48.5972 15.8927L48.4299 16.3527C48.3045 16.2691 48.0117 16.1436 47.5935 16.1436C47.008 16.1436 46.757 16.52 46.757 16.8128C46.757 17.231 47.008 17.4401 47.6353 17.6492C48.3881 17.942 48.7227 18.2766 48.7227 18.9457C48.7227 19.6149 48.2208 20.2004 47.2171 20.2004C46.7989 20.2004 46.3388 20.0749 46.0879 19.9076L46.297 19.4476Z" fill="#006972"/>
<path d="M50.1864 16.2686V17.0214H51.0229V17.4396H50.1864V19.1125C50.1864 19.4889 50.3119 19.7398 50.6046 19.7398C50.7719 19.7398 50.8556 19.7398 50.9392 19.698L50.981 20.1162C50.8556 20.158 50.6883 20.1998 50.4792 20.1998C50.2282 20.1998 50.0191 20.1162 49.8518 19.9489C49.6846 19.7816 49.6427 19.4889 49.6427 19.1125V17.3978H49.1409V16.9795H49.6427V16.394L50.1864 16.2686Z" fill="#006972"/>
<path d="M53.8668 19.4052C53.8668 19.6979 53.8668 19.9489 53.9087 20.158H53.4068L53.365 19.7816C53.1977 20.0325 52.8631 20.2416 52.4031 20.2416C51.7757 20.2416 51.4412 19.7816 51.4412 19.3215C51.4412 18.5687 52.1103 18.1505 53.3232 18.1505V18.0669C53.3232 17.8159 53.2395 17.3141 52.6122 17.3559C52.3194 17.3559 52.0267 17.4395 51.7757 17.6068L51.6503 17.2304C51.9012 17.0631 52.2776 16.9795 52.6958 16.9795C53.6577 16.9795 53.9087 17.6486 53.9087 18.276V19.4052H53.8668ZM53.3232 18.5687C52.6958 18.5687 51.9849 18.6524 51.9849 19.2797C51.9849 19.6561 52.2358 19.8234 52.5285 19.8234C52.9468 19.8234 53.1977 19.5725 53.2813 19.2797C53.2813 19.2379 53.3232 19.1542 53.3232 19.1124V18.5687Z" fill="#006972"/>
<path d="M54.7869 17.8586C54.7869 17.524 54.7869 17.2731 54.7451 17.0221H55.247L55.2888 17.524C55.4561 17.2312 55.7907 16.9385 56.3344 16.9385C56.7526 16.9385 57.4636 17.1894 57.4636 18.2768V20.1588H56.8781V18.3604C56.8781 17.8586 56.6689 17.4403 56.1671 17.4403C55.7907 17.4403 55.4979 17.6913 55.4143 18.0259C55.3725 18.1095 55.3724 18.1931 55.3724 18.2768V20.1588H54.7869V17.8586Z" fill="#006972"/>
<path d="M61.102 15.5576V19.3634C61.102 19.6562 61.102 19.9489 61.1439 20.1581H60.642L60.6002 19.6144C60.4329 19.9489 60.0565 20.2417 59.5546 20.2417C58.8018 20.2417 58.2163 19.6144 58.2163 18.6525C58.2163 17.6069 58.8855 16.9796 59.6383 16.9796C60.1401 16.9796 60.4329 17.1887 60.6002 17.4396V15.5576H61.102ZM60.5165 18.2761C60.5165 18.1924 60.5165 18.1088 60.4747 18.0251C60.3911 17.6487 60.0983 17.356 59.6383 17.356C59.0528 17.356 58.6764 17.8578 58.6764 18.5688C58.6764 19.1961 59.0109 19.7398 59.5964 19.7398C59.9728 19.7398 60.3074 19.4889 60.4329 19.0707C60.4747 18.987 60.4747 18.9034 60.4747 18.8197V18.2761H60.5165Z" fill="#006972"/>
<path d="M64.2807 19.4052C64.2807 19.6979 64.2807 19.9489 64.3225 20.158H63.8206L63.7788 19.7816C63.6115 20.0325 63.2769 20.2416 62.8169 20.2416C62.1896 20.2416 61.855 19.7816 61.855 19.3215C61.855 18.5687 62.5241 18.1505 63.737 18.1505V18.0669C63.737 17.8159 63.6533 17.3141 63.026 17.3559C62.7332 17.3559 62.4405 17.4395 62.1896 17.6068L62.0641 17.2304C62.315 17.0631 62.6914 16.9795 63.1096 16.9795C64.0716 16.9795 64.3225 17.6486 64.3225 18.276V19.4052H64.2807ZM63.6952 18.5687C63.0678 18.5687 62.3569 18.6524 62.3569 19.2797C62.3569 19.6561 62.6078 19.8234 62.9005 19.8234C63.3188 19.8234 63.5697 19.5725 63.6533 19.2797C63.6533 19.2379 63.6952 19.1542 63.6952 19.1124V18.5687Z" fill="#006972"/>
<path d="M65.2005 17.9832C65.2005 17.6068 65.2005 17.3141 65.1587 17.0213H65.6606L65.7024 17.6486H65.7442C65.8697 17.2304 66.2461 16.9795 66.6225 16.9795C66.6643 16.9795 66.7061 16.9795 66.7898 16.9795V17.5232C66.7061 17.5232 66.6643 17.5232 66.5806 17.5232C66.1624 17.5232 65.9115 17.8159 65.8278 18.2342C65.8278 18.3178 65.8278 18.4014 65.8278 18.5269V20.1998H65.2423L65.2005 17.9832Z" fill="#006972"/>
<path d="M69.9686 15.5576V19.3634C69.9686 19.6562 69.9686 19.9489 70.0104 20.1581H69.5085L69.4667 19.6144C69.2994 19.9489 68.923 20.2417 68.3793 20.2417C67.6265 20.2417 67.041 19.6144 67.041 18.6525C67.041 17.6069 67.6683 16.9796 68.463 16.9796C68.9648 16.9796 69.2576 17.1887 69.4249 17.4396V15.5576H69.9686ZM69.4249 18.2761C69.4249 18.1924 69.4249 18.1088 69.3831 18.0251C69.2994 17.6487 68.9648 17.356 68.5466 17.356C67.9611 17.356 67.6265 17.8578 67.6265 18.5688C67.6265 19.1961 67.9611 19.7398 68.5466 19.7398C68.923 19.7398 69.2994 19.4889 69.3831 19.0707C69.3831 18.987 69.4249 18.9034 69.4249 18.8197V18.2761Z" fill="#006972"/>
<path d="M70.8464 19.5733C71.0137 19.6987 71.3065 19.7824 71.5992 19.7824C72.0174 19.7824 72.1847 19.5733 72.1847 19.3223C72.1847 19.0296 72.0174 18.9041 71.5992 18.7368C71.0137 18.5277 70.7628 18.235 70.7628 17.8586C70.7628 17.3567 71.181 16.9385 71.8501 16.9385C72.1847 16.9385 72.4356 17.0221 72.6029 17.1476L72.4775 17.5658C72.352 17.4822 72.1429 17.3985 71.8501 17.3985C71.5156 17.3985 71.3483 17.6076 71.3483 17.8167C71.3483 18.0677 71.5156 18.1931 71.9338 18.3604C72.4775 18.5695 72.7702 18.8205 72.7702 19.3223C72.7702 19.866 72.352 20.2842 71.5992 20.2842C71.2646 20.2842 70.9301 20.2006 70.7209 20.0751L70.8464 19.5733Z" fill="#006972"/>
<path d="M77.9566 20.0333C77.7475 20.1169 77.3293 20.2424 76.7856 20.2424C75.5728 20.2424 74.6108 19.4478 74.6108 18.0258C74.6108 16.6457 75.5309 15.7256 76.9111 15.7256C77.4547 15.7256 77.7893 15.8511 77.9566 15.9347L77.8311 16.3947C77.622 16.3111 77.3293 16.2275 76.9529 16.2275C75.9073 16.2275 75.2382 16.8966 75.2382 18.0258C75.2382 19.1132 75.8655 19.7823 76.9111 19.7823C77.2456 19.7823 77.622 19.6987 77.8311 19.615L77.9566 20.0333Z" fill="#006972"/>
<path d="M79.8384 20.2424C79.0019 20.2424 78.3328 19.6151 78.3328 18.6114C78.3328 17.5658 79.0437 16.9385 79.8802 16.9385C80.8003 16.9385 81.3858 17.6076 81.3858 18.5277C81.3858 19.6987 80.5912 20.2424 79.8384 20.2424ZM79.8384 19.7824C80.382 19.7824 80.8003 19.2805 80.8003 18.5695C80.8003 18.0259 80.5493 17.3567 79.8384 17.3567C79.1692 17.3567 78.8765 17.984 78.8765 18.5695C78.9183 19.2805 79.2947 19.7824 79.8384 19.7824Z" fill="#006972"/>
<path d="M84.7315 19.2805C84.7315 19.6151 84.7315 19.9078 84.7733 20.117H84.2714L84.2296 19.6151C84.1041 19.866 83.7277 20.2006 83.1841 20.2006C82.6822 20.2006 82.0967 19.9078 82.0967 18.8205V16.9803H82.6822V18.695C82.6822 19.2805 82.8495 19.6987 83.3932 19.6987C83.7696 19.6987 84.0205 19.4478 84.146 19.1551C84.1878 19.0714 84.1878 18.9878 84.1878 18.8623V16.9385H84.7733V19.2805" fill="#006972"/>
<path d="M85.6934 17.8586C85.6934 17.524 85.6934 17.2731 85.6516 17.0221H86.1535L86.1953 17.524C86.3626 17.2312 86.6972 16.9385 87.2409 16.9385C87.6591 16.9385 88.3701 17.1894 88.3701 18.2768V20.1588H87.7845V18.3604C87.7845 17.8586 87.5754 17.4403 87.0736 17.4403C86.6972 17.4403 86.4044 17.6913 86.3208 18.0259C86.2789 18.1095 86.2789 18.1931 86.2789 18.2768V20.1588H85.6934V17.8586Z" fill="#006972"/>
<path d="M91.5486 20.0333C91.3813 20.117 91.0885 20.2006 90.6285 20.2006C89.6666 20.2006 89.0811 19.5733 89.0811 18.6114C89.0811 17.6495 89.7502 16.9385 90.7539 16.9385C91.0885 16.9385 91.3813 17.0221 91.5486 17.1058L91.4231 17.524C91.2976 17.4403 91.0885 17.3567 90.7539 17.3567C90.043 17.3567 89.6247 17.9004 89.6247 18.5695C89.6247 19.2805 90.0848 19.7406 90.7121 19.7406C91.0467 19.7406 91.2558 19.6569 91.4231 19.5733L91.5486 20.0333Z" fill="#006972"/>
<path d="M92.4689 16.4364C92.2598 16.4364 92.0925 16.2691 92.0925 16.06C92.0925 15.8509 92.2598 15.6836 92.4689 15.6836C92.678 15.6836 92.8453 15.8509 92.8453 16.06C92.8453 16.2691 92.7199 16.4364 92.4689 16.4364ZM92.7617 20.1586H92.1762V17.0219H92.7617V20.1586Z" fill="#006972"/>
<path d="M94.3089 15.5576H93.7234V20.1581H94.3089V15.5576Z" fill="#006972"/>
<path d="M43.3696 18.0672L9.78638 28.6064L0 1.96564L35.2561 0L43.3696 18.0672Z" fill="#006972"/>
<path d="M17.9833 12.7142C17.9833 13.3833 17.816 13.9688 17.5233 14.5125C17.2305 15.0144 16.8123 15.4744 16.2686 15.809C15.7249 16.1436 15.0558 16.3945 14.303 16.5618C13.5502 16.7291 12.7137 16.8127 11.7518 16.8127H11.0827V20.2422H6.73315V8.82471H11.8355C13.7593 8.82471 15.2649 9.15929 16.3522 9.78662C17.4396 10.414 17.9833 11.4177 17.9833 12.7142ZM13.8011 12.756C13.8011 11.7523 13.0483 11.2504 11.5845 11.2504H11.0408V14.3034H11.5427C12.2537 14.3034 12.8392 14.1779 13.2156 13.927C13.592 13.7179 13.8011 13.2997 13.8011 12.756Z" fill="white"/>
<path d="M28.7736 20.2423C28.1044 20.3678 27.3516 20.4514 26.4733 20.4514C25.2605 20.4514 24.1731 20.3259 23.253 20.0332C22.2911 19.7404 21.4965 19.364 20.8273 18.8622C20.1582 18.3603 19.6563 17.733 19.3218 17.022C18.9872 16.2692 18.8199 15.4746 18.8199 14.5963C18.8199 13.718 18.9872 12.9234 19.3636 12.1706C19.74 11.4596 20.2418 10.8323 20.911 10.2886C21.5801 9.78676 22.3748 9.36854 23.2949 9.07578C24.2149 8.78303 25.2187 8.65756 26.3061 8.65756C27.1425 8.65756 27.9371 8.69938 28.6481 8.82485C29.3591 8.99214 29.3591 8.99214 29.9028 9.20125V12.2543C29.4845 12.0033 28.9827 11.7942 28.439 11.6688C27.8953 11.5015 27.3098 11.4178 26.7243 11.4178C25.7205 11.4178 24.9259 11.7106 24.2986 12.2124C23.6713 12.7561 23.3785 13.5089 23.3785 14.5545C23.3785 15.0563 23.4621 15.5164 23.6713 15.9346C23.8804 16.311 24.1313 16.6456 24.4659 16.8965C24.8005 17.1475 25.1769 17.3566 25.6369 17.482C26.0969 17.6075 26.557 17.6911 27.0588 17.6911C27.5607 17.6911 28.1044 17.6493 28.6063 17.5239C29.1081 17.3984 29.6518 17.2729 30.1955 17.022V19.9077C29.5264 20.075 29.4427 20.1168 28.7736 20.2423Z" fill="white"/>
<path d="M36.385 8.82471H31.9937V20.284H36.385V8.82471Z" fill="white"/>
<path d="M36.845 5.22808C36.845 5.98088 36.5941 6.60821 36.0922 7.02643C35.5904 7.44465 34.963 7.69559 34.2102 7.69559C33.4574 7.69559 32.8301 7.48648 32.3283 7.02643C31.8264 6.60821 31.5755 5.98088 31.5755 5.22808C31.5755 4.43346 31.8264 3.84795 32.3283 3.3879C32.8301 2.92786 33.4574 2.71875 34.2102 2.71875C34.963 2.71875 35.5904 2.92786 36.0922 3.3879C36.5941 3.80613 36.845 4.43346 36.845 5.22808Z" fill="white"/>
</svg>
