<svg width="86" height="31" viewBox="0 0 86 31" fill="none" xmlns="http://www.w3.org/2000/svg">
<path d="M0.0266113 28.1717L0.908948 28.0861C0.961541 28.3821 1.06953 28.5992 1.23178 28.7385C1.39404 28.8773 1.61336 28.9466 1.88864 28.9466C2.1807 28.9466 2.40058 28.8845 2.54885 28.7614C2.69656 28.6378 2.77098 28.4934 2.77098 28.3278C2.77098 28.2221 2.73964 28.1314 2.67754 28.0565C2.61487 27.9826 2.50633 27.9177 2.35135 27.8623C2.24504 27.8254 2.00334 27.7599 1.62511 27.6665C1.13946 27.5456 0.798166 27.3979 0.60234 27.2222C0.326505 26.9755 0.188867 26.6739 0.188867 26.3186C0.188867 26.0904 0.25377 25.8761 0.383574 25.6775C0.51282 25.4777 0.699694 25.3266 0.944197 25.222C1.18758 25.118 1.48244 25.0659 1.82765 25.0659C2.39107 25.0659 2.81518 25.1896 3.09996 25.4369C3.38475 25.6836 3.5347 26.0137 3.54868 26.4261L2.64229 26.4658C2.60312 26.2347 2.52032 26.0691 2.39275 25.9678C2.26518 25.8671 2.07327 25.8162 1.81814 25.8162C1.55517 25.8162 1.34872 25.8705 1.19989 25.979C1.10366 26.0478 1.05554 26.1413 1.05554 26.2577C1.05554 26.3634 1.1003 26.4546 1.19038 26.5301C1.30452 26.6264 1.58259 26.726 2.02348 26.83C2.46437 26.9341 2.79056 27.0421 3.00205 27.1534C3.21354 27.2648 3.3786 27.417 3.49833 27.6094C3.6175 27.803 3.67737 28.0414 3.67737 28.325C3.67737 28.5824 3.60575 28.823 3.46308 29.0479C3.31985 29.2723 3.11787 29.439 2.85658 29.5487C2.59529 29.6578 2.26966 29.7126 1.87969 29.7126C1.31179 29.7126 0.875937 29.5811 0.571568 29.3187C0.267198 29.0563 0.0859187 28.6742 0.0266113 28.1717Z" fill="#10298E"/>
<path d="M4.62231 25.1428H5.48283V25.939H4.62231V25.1428ZM4.62231 26.3799H5.48283V29.6328H4.62231V26.3799Z" fill="#10298E"/>
<path d="M9.51168 29.6329H8.65117V27.9728C8.65117 27.6215 8.6327 27.3943 8.59578 27.2914C8.55941 27.1884 8.49954 27.1078 8.41674 27.0508C8.33393 26.9937 8.23434 26.9652 8.11796 26.9652C7.96913 26.9652 7.83541 27.006 7.7168 27.0877C7.59818 27.1694 7.51705 27.2774 7.47341 27.4122C7.42921 27.5471 7.40739 27.796 7.40739 28.1597V29.6329H6.54688V26.3799H7.34641V26.8578C7.63007 26.4902 7.9876 26.3066 8.41841 26.3066C8.60809 26.3066 8.78153 26.3408 8.93875 26.409C9.09597 26.4778 9.21515 26.5651 9.29571 26.6709C9.37628 26.7772 9.43223 26.898 9.46413 27.0323C9.49602 27.1672 9.51168 27.3602 9.51168 27.6114V29.6329Z" fill="#10298E"/>
<path d="M10.4932 29.8472L11.4763 29.9669C11.4925 30.0811 11.5305 30.1594 11.5898 30.2025C11.6715 30.264 11.7997 30.2942 11.9759 30.2942C12.2003 30.2942 12.3687 30.2607 12.4811 30.1935C12.5567 30.1482 12.6137 30.076 12.6523 29.9759C12.6786 29.9042 12.6921 29.7728 12.6921 29.5809V29.1058C12.4353 29.4572 12.1102 29.6329 11.7185 29.6329C11.2816 29.6329 10.9352 29.4477 10.6801 29.0784C10.4798 28.7864 10.3796 28.4232 10.3796 27.9879C10.3796 27.443 10.5111 27.0262 10.7735 26.7386C11.0359 26.4504 11.3621 26.3066 11.7521 26.3066C12.1544 26.3066 12.4862 26.4829 12.7475 26.8365V26.3799H13.5531V29.2989C13.5531 29.6827 13.5213 29.9697 13.458 30.1594C13.3948 30.3496 13.3058 30.4984 13.1917 30.607C13.077 30.715 12.9243 30.7995 12.7335 30.861C12.5427 30.922 12.301 30.9528 12.0095 30.9528C11.4578 30.9528 11.0667 30.8582 10.8362 30.6696C10.6057 30.4805 10.4904 30.2411 10.4904 29.9512L10.4932 29.8472ZM11.262 27.9393C11.262 28.2839 11.3286 28.5368 11.4628 28.6974C11.596 28.8574 11.7611 28.9374 11.9574 28.9374C12.1673 28.9374 12.3452 28.8552 12.4901 28.6912C12.635 28.5267 12.7077 28.2834 12.7077 27.9605C12.7077 27.6237 12.6384 27.3736 12.4996 27.2102C12.3603 27.0469 12.1846 26.9652 11.9725 26.9652C11.7661 26.9652 11.596 27.0452 11.4628 27.2052C11.3286 27.3658 11.262 27.6103 11.262 27.9393Z" fill="#10298E"/>
<path d="M14.5925 25.1428H15.453V29.6328H14.5925V25.1428Z" fill="#10298E"/>
<path d="M18.407 28.5976L19.2647 28.7414C19.1545 29.0558 18.9799 29.2953 18.7421 29.4598C18.5043 29.6243 18.2067 29.7065 17.8497 29.7065C17.284 29.7065 16.8655 29.5213 16.5936 29.152C16.3793 28.8561 16.2725 28.4823 16.2725 28.0308C16.2725 27.492 16.4129 27.0696 16.6949 26.7641C16.9769 26.4591 17.3327 26.3064 17.7635 26.3064C18.2475 26.3064 18.6296 26.4664 18.9094 26.7859C19.1892 27.1054 19.3229 27.5949 19.3106 28.2546H17.1542C17.1604 28.5097 17.2298 28.7083 17.3624 28.8505C17.495 28.992 17.6606 29.0631 17.8587 29.0631C17.9935 29.0631 18.1071 29.0261 18.1988 28.9528C18.2906 28.8796 18.36 28.7609 18.407 28.5976ZM18.4562 27.7275C18.45 27.4786 18.3857 27.2889 18.2632 27.1596C18.1406 27.0298 17.9913 26.9649 17.8156 26.9649C17.6281 26.9649 17.4726 27.0338 17.3501 27.1703C17.2275 27.3068 17.1677 27.4931 17.1693 27.7275H18.4562Z" fill="#10298E"/>
<path d="M22.1372 29.6326V25.1426H25.4663V25.9018H23.0436V26.8977H25.2978V27.6542H23.0436V28.8761H25.5524V29.6326H22.1372Z" fill="#10298E"/>
<path d="M28.644 29.6326V29.1458C28.5254 29.3193 28.3698 29.4558 28.1768 29.5559C27.9838 29.6561 27.7801 29.7059 27.5658 29.7059C27.3471 29.7059 27.1512 29.6583 26.9778 29.5621C26.8043 29.4659 26.6785 29.3316 26.6012 29.1576C26.5235 28.9841 26.4849 28.7441 26.4849 28.4381V26.3796H27.3454V27.8746C27.3454 28.3317 27.361 28.6121 27.3929 28.7156C27.4243 28.8185 27.4819 28.9002 27.5658 28.9606C27.6497 29.0205 27.7561 29.0507 27.8842 29.0507C28.0313 29.0507 28.1634 29.0104 28.2797 28.9299C28.3961 28.8493 28.4756 28.7486 28.5187 28.6294C28.5612 28.5097 28.583 28.2176 28.583 27.7521V26.3796H29.4435V29.6326H28.644Z" fill="#10298E"/>
<path d="M31.3468 29.6329H30.4863V26.3799H31.2859V26.8426C31.4224 26.6239 31.5455 26.4801 31.6546 26.4107C31.7637 26.3413 31.8879 26.3066 32.0266 26.3066C32.223 26.3066 32.4116 26.3609 32.5934 26.4689L32.3271 27.2192C32.1816 27.1258 32.0473 27.0788 31.9226 27.0788C31.8023 27.0788 31.6999 27.1118 31.6165 27.1783C31.5326 27.2444 31.4666 27.3647 31.419 27.5381C31.3709 27.7116 31.3468 28.0752 31.3468 28.628V29.6329Z" fill="#10298E"/>
<path d="M32.9534 27.9605C32.9534 27.6746 33.0239 27.3982 33.1649 27.1308C33.3059 26.8628 33.505 26.6586 33.7635 26.5181C34.0215 26.3771 34.3102 26.3066 34.6285 26.3066C35.1209 26.3066 35.5243 26.4667 35.8387 26.7861C36.1526 27.1056 36.3104 27.509 36.3104 27.9975C36.3104 28.4893 36.1515 28.8971 35.8337 29.2205C35.5165 29.5445 35.117 29.7062 34.6347 29.7062C34.3365 29.7062 34.0522 29.639 33.782 29.5042C33.5112 29.3694 33.3059 29.1719 33.1649 28.9117C33.0239 28.651 32.9534 28.3343 32.9534 27.9605ZM33.8357 28.0064C33.8357 28.3292 33.9118 28.576 34.0651 28.7478C34.2184 28.919 34.407 29.0051 34.6319 29.0051C34.8562 29.0051 35.0448 28.919 35.197 28.7478C35.3486 28.576 35.4253 28.327 35.4253 28.0003C35.4253 27.6819 35.3486 27.4368 35.197 27.2651C35.0448 27.0939 34.8562 27.0083 34.6319 27.0083C34.407 27.0083 34.2184 27.0939 34.0651 27.2651C33.9118 27.4368 33.8357 27.6836 33.8357 28.0064Z" fill="#10298E"/>
<path d="M39.1089 29.6326V25.1426H40.5636C41.1153 25.1426 41.4745 25.165 41.6418 25.2097C41.8991 25.2774 42.1145 25.424 42.288 25.6495C42.4614 25.875 42.5482 26.1665 42.5482 26.524C42.5482 26.7993 42.4984 27.0309 42.3982 27.2189C42.2981 27.4069 42.171 27.5546 42.0172 27.662C41.8628 27.7689 41.7061 27.8399 41.5466 27.8746C41.3307 27.9172 41.0168 27.939 40.6067 27.939H40.0153V29.6326H39.1089ZM40.0153 25.9018V27.1764H40.5116C40.8691 27.1764 41.108 27.1529 41.2283 27.1059C41.3486 27.0589 41.4431 26.985 41.5114 26.8854C41.5802 26.7853 41.6143 26.6689 41.6143 26.5363C41.6143 26.3729 41.5662 26.2381 41.4705 26.1318C41.3743 26.0255 41.2529 25.9589 41.1058 25.9326C40.9978 25.9125 40.7801 25.9018 40.4534 25.9018H40.0153Z" fill="#10298E"/>
<path d="M44.1178 27.3725L43.3373 27.2315C43.4245 26.9171 43.5762 26.6843 43.7904 26.5332C44.0047 26.3822 44.3231 26.3066 44.7461 26.3066C45.1293 26.3066 45.4152 26.352 45.6032 26.4432C45.7912 26.5338 45.9233 26.6491 45.9999 26.7889C46.0766 26.9288 46.1146 27.1856 46.1146 27.5594L46.1057 28.5637C46.1057 28.8501 46.1197 29.0605 46.1471 29.1965C46.1745 29.3319 46.226 29.4779 46.3021 29.6329H45.4505C45.4276 29.5758 45.4001 29.4908 45.3671 29.3789C45.3531 29.328 45.3431 29.2938 45.3369 29.2776C45.1898 29.4203 45.0325 29.5277 44.8653 29.5993C44.698 29.6709 44.5195 29.7062 44.3293 29.7062C43.9941 29.7062 43.7306 29.6155 43.5376 29.4337C43.3445 29.2519 43.2483 29.0225 43.2483 28.7444C43.2483 28.5609 43.2919 28.3969 43.3798 28.2532C43.4671 28.1094 43.5901 27.9991 43.749 27.9219C43.9068 27.8458 44.1351 27.7787 44.4333 27.7216C44.8356 27.6461 45.1142 27.5756 45.2692 27.5101V27.4245C45.2692 27.2589 45.2289 27.1414 45.1467 27.0709C45.065 27.0004 44.9111 26.9652 44.6845 26.9652C44.5312 26.9652 44.4115 26.9954 44.3259 27.0558C44.2403 27.1157 44.1709 27.2214 44.1178 27.3725ZM45.2692 28.0708C45.159 28.1077 44.985 28.1513 44.7461 28.2028C44.5072 28.2537 44.3505 28.3035 44.2772 28.3527C44.1648 28.4322 44.1088 28.5335 44.1088 28.656C44.1088 28.7763 44.1536 28.8804 44.2436 28.9682C44.3332 29.056 44.4473 29.0997 44.5866 29.0997C44.7416 29.0997 44.8893 29.0488 45.0303 28.9469C45.1344 28.8692 45.2032 28.7741 45.2362 28.6621C45.258 28.5883 45.2692 28.4484 45.2692 28.2425V28.0708Z" fill="#10298E"/>
<path d="M46.7441 26.3801H47.66L48.4383 28.6898L49.1976 26.3801H50.0889L48.9402 29.5105L48.7349 30.0768C48.6593 30.267 48.5871 30.4119 48.5194 30.5121C48.4506 30.6117 48.3723 30.6933 48.2833 30.7554C48.1944 30.8175 48.0853 30.8662 47.9555 30.9009C47.8257 30.9356 47.6796 30.9529 47.5157 30.9529C47.3506 30.9529 47.1884 30.9356 47.0295 30.9009L46.9523 30.2273C47.0871 30.2536 47.2085 30.267 47.3171 30.267C47.5168 30.267 47.6651 30.2082 47.7608 30.0908C47.857 29.9733 47.9303 29.8239 47.9818 29.642L46.7441 26.3801Z" fill="#10298E"/>
<path d="M50.7639 26.3799H51.5573V26.8242C51.841 26.479 52.1789 26.3066 52.5711 26.3066C52.7792 26.3066 52.96 26.3492 53.1133 26.4348C53.266 26.5209 53.3919 26.6507 53.4898 26.8242C53.6325 26.6507 53.7869 26.5209 53.9525 26.4348C54.1176 26.3492 54.2944 26.3066 54.4824 26.3066C54.7213 26.3066 54.9233 26.3548 55.0883 26.4516C55.2539 26.5489 55.3776 26.691 55.4593 26.879C55.518 27.0183 55.5482 27.2427 55.5482 27.5532V29.6329H54.6872V27.7737C54.6872 27.4508 54.6581 27.2427 54.5988 27.1487C54.5187 27.0262 54.3962 26.9652 54.2312 26.9652C54.1103 26.9652 53.9973 27.0015 53.891 27.0754C53.7847 27.1487 53.7086 27.2567 53.6616 27.3982C53.614 27.5403 53.5911 27.7641 53.5911 28.0708V29.6329H52.73V27.8503C52.73 27.5336 52.7149 27.3294 52.6841 27.2377C52.6539 27.1459 52.6064 27.0771 52.542 27.0323C52.4777 26.9876 52.3904 26.9652 52.2802 26.9652C52.147 26.9652 52.0278 27.0004 51.9215 27.072C51.8158 27.1437 51.7391 27.2466 51.6938 27.3814C51.6474 27.5163 51.6244 27.7401 51.6244 28.0523V29.6329H50.7639V26.3799Z" fill="#10298E"/>
<path d="M58.4774 28.5976L59.3351 28.7414C59.2248 29.0558 59.0503 29.2953 58.8125 29.4598C58.5747 29.6243 58.277 29.7065 57.9201 29.7065C57.3539 29.7065 56.9359 29.5213 56.664 29.152C56.4497 28.8561 56.3423 28.4823 56.3423 28.0308C56.3423 27.492 56.4833 27.0696 56.7653 26.7641C57.0473 26.4591 57.4031 26.3064 57.8339 26.3064C58.3179 26.3064 58.7 26.4664 58.9798 26.7859C59.259 27.1054 59.3933 27.5949 59.381 28.2546H57.2246C57.2308 28.5097 57.3002 28.7083 57.4328 28.8505C57.5659 28.992 57.731 29.0631 57.929 29.0631C58.0639 29.0631 58.1775 29.0261 58.2692 28.9528C58.361 28.8796 58.4304 28.7609 58.4774 28.5976ZM58.5266 27.7275C58.5204 27.4786 58.4561 27.2889 58.3336 27.1596C58.211 27.0298 58.0616 26.9649 57.886 26.9649C57.6985 26.9649 57.543 27.0338 57.4204 27.1703C57.2979 27.3068 57.2375 27.4931 57.2397 27.7275H58.5266Z" fill="#10298E"/>
<path d="M63.2292 29.6329H62.3687V27.9728C62.3687 27.6215 62.3502 27.3943 62.3133 27.2914C62.2764 27.1884 62.2171 27.1078 62.1343 27.0508C62.0515 26.9937 61.9519 26.9652 61.8355 26.9652C61.6867 26.9652 61.5529 27.006 61.4343 27.0877C61.3157 27.1694 61.2346 27.2774 61.1909 27.4122C61.1473 27.5471 61.1249 27.796 61.1249 28.1597V29.6329H60.2644V26.3799H61.0639V26.8578C61.3476 26.4902 61.7051 26.3066 62.1359 26.3066C62.3256 26.3066 62.4991 26.3408 62.6563 26.409C62.8135 26.4778 62.9321 26.5651 63.0132 26.6709C63.0938 26.7772 63.1503 26.898 63.1817 27.0323C63.2135 27.1672 63.2292 27.3602 63.2292 27.6114V29.6329Z" fill="#10298E"/>
<path d="M65.7817 26.3801V27.0661H65.1937V28.377C65.1937 28.6422 65.1993 28.7972 65.2105 28.8408L65.2871 28.9499C65.3269 28.9784 65.375 28.9924 65.4326 28.9924C65.5121 28.9924 65.6273 28.965 65.7784 28.9102L65.8517 29.5777C65.6519 29.6633 65.4253 29.7064 65.1719 29.7064C65.0169 29.7064 64.877 29.6801 64.7528 29.6286C64.628 29.576 64.5368 29.5088 64.4787 29.426C64.4205 29.3432 64.3796 29.2313 64.3572 29.0909C64.3388 28.9907 64.3298 28.7888 64.3298 28.4844V27.0661H63.9348V26.3801H64.3298V25.7339L65.1937 25.2314V26.3801H65.7817Z" fill="#10298E"/>
<path d="M66.2642 28.7047L67.128 28.5732C67.1644 28.7405 67.2388 28.8675 67.3513 28.9542C67.4637 29.0409 67.621 29.0846 67.8229 29.0846C68.0456 29.0846 68.2129 29.0437 68.3254 28.962C68.4009 28.905 68.4389 28.8283 68.4389 28.7321C68.4389 28.6666 68.4182 28.6129 68.3774 28.5698C68.3349 28.529 68.2381 28.4915 68.0898 28.4568C67.3949 28.3035 66.9551 28.1636 66.7694 28.0372C66.512 27.8615 66.3833 27.6176 66.3833 27.3048C66.3833 27.0234 66.4947 26.7861 66.7174 26.5942C66.9395 26.4023 67.2847 26.3066 67.753 26.3066C68.1978 26.3066 68.5285 26.3788 68.745 26.5237C68.961 26.6692 69.1104 26.8835 69.192 27.1672L68.3802 27.3171C68.3455 27.1907 68.2801 27.0939 68.1827 27.0262C68.0859 26.959 67.9477 26.9255 67.7675 26.9255C67.5409 26.9255 67.3793 26.9568 67.2808 27.02C67.2153 27.0648 67.1829 27.123 67.1829 27.1946C67.1829 27.2561 67.2114 27.3082 67.269 27.3507C67.3462 27.4077 67.6142 27.4889 68.0725 27.5929C68.5307 27.697 68.8507 27.8246 69.0331 27.9756C69.2122 28.1289 69.3023 28.3421 69.3023 28.6157C69.3023 28.9139 69.1781 29.1702 68.9291 29.3845C68.6795 29.5988 68.3108 29.7062 67.8229 29.7062C67.3798 29.7062 67.0296 29.6161 66.7711 29.4365C66.5126 29.2569 66.3436 29.013 66.2642 28.7047Z" fill="#10298E"/>
<path d="M75.9971 29.6326H75.0107L74.619 28.6126H72.8241L72.4532 29.6326H71.4919L73.2404 25.1426H74.1994L75.9971 29.6326ZM74.3281 27.8562L73.7093 26.19L73.1028 27.8562H74.3281Z" fill="#10298E"/>
<path d="M77.4841 29.6329H76.6235V26.3799H77.4231V26.8426C77.5596 26.6239 77.6827 26.4801 77.7918 26.4107C77.9009 26.3413 78.0251 26.3066 78.1638 26.3066C78.3602 26.3066 78.5488 26.3609 78.7306 26.4689L78.4643 27.2192C78.3188 27.1258 78.1846 27.0788 78.0598 27.0788C77.9395 27.0788 77.8371 27.1118 77.7537 27.1783C77.6698 27.2444 77.6038 27.3647 77.5557 27.5381C77.5081 27.7116 77.4841 28.0752 77.4841 28.628V29.6329Z" fill="#10298E"/>
<path d="M81.1729 28.5976L82.0306 28.7414C81.9204 29.0558 81.7464 29.2953 81.5086 29.4598C81.2703 29.6243 80.9726 29.7065 80.6156 29.7065C80.05 29.7065 79.6315 29.5213 79.3596 29.152C79.1453 28.8561 79.0378 28.4823 79.0378 28.0308C79.0378 27.492 79.1788 27.0696 79.4608 26.7641C79.7423 26.4591 80.0992 26.3064 80.5295 26.3064C81.0135 26.3064 81.3956 26.4664 81.6753 26.7859C81.9551 27.1054 82.0888 27.5949 82.0765 28.2546H79.9202C79.9263 28.5097 79.9957 28.7083 80.1283 28.8505C80.2609 28.992 80.4265 29.0631 80.6246 29.0631C80.7594 29.0631 80.873 29.0261 80.9648 28.9528C81.0565 28.8796 81.1259 28.7609 81.1729 28.5976ZM81.2221 27.7275C81.216 27.4786 81.1516 27.2889 81.0291 27.1596C80.9066 27.0298 80.7572 26.9649 80.5815 26.9649C80.3941 26.9649 80.2385 27.0338 80.116 27.1703C79.9935 27.3068 79.9336 27.4931 79.9353 27.7275H81.2221Z" fill="#10298E"/>
<path d="M83.6088 27.3725L82.8283 27.2315C82.9156 26.9171 83.0672 26.6843 83.2815 26.5332C83.4958 26.3822 83.8141 26.3066 84.2371 26.3066C84.6204 26.3066 84.9063 26.352 85.0948 26.4432C85.2823 26.5338 85.4143 26.6491 85.491 26.7889C85.5676 26.9288 85.6057 27.1856 85.6057 27.5594L85.5967 28.5637C85.5967 28.8501 85.6107 29.0605 85.6381 29.1965C85.6655 29.3319 85.717 29.4779 85.7931 29.6329H84.9415C84.9186 29.5758 84.8912 29.4908 84.8587 29.3789C84.8442 29.328 84.8341 29.2938 84.828 29.2776C84.6808 29.4203 84.5236 29.5277 84.3563 29.5993C84.189 29.6709 84.0105 29.7062 83.8203 29.7062C83.4851 29.7062 83.2216 29.6155 83.0286 29.4337C82.8356 29.2519 82.7388 29.0225 82.7388 28.7444C82.7388 28.5609 82.783 28.3969 82.8708 28.2532C82.9587 28.1094 83.0812 27.9991 83.2401 27.9219C83.3979 27.8458 83.6261 27.7787 83.9244 27.7216C84.3266 27.6461 84.6053 27.5756 84.7603 27.5101V27.4245C84.7603 27.2589 84.72 27.1414 84.6377 27.0709C84.556 27.0004 84.4022 26.9652 84.1756 26.9652C84.0228 26.9652 83.9031 26.9954 83.8169 27.0558C83.7313 27.1157 83.6619 27.2214 83.6088 27.3725ZM84.7603 28.0708C84.65 28.1077 84.476 28.1513 84.2371 28.2028C83.9982 28.2537 83.8416 28.3035 83.7683 28.3527C83.6558 28.4322 83.5998 28.5335 83.5998 28.656C83.5998 28.7763 83.6446 28.8804 83.7347 28.9682C83.8242 29.056 83.9383 29.0997 84.0777 29.0997C84.2326 29.0997 84.3809 29.0488 84.5213 28.9469C84.626 28.8692 84.6942 28.7741 84.7272 28.6621C84.7491 28.5883 84.7603 28.4484 84.7603 28.2425V28.0708Z" fill="#10298E"/>
<path d="M19.107 7.4966H13.2227C13.2227 6.5309 13.1092 5.88299 12.8831 5.55288C12.5329 5.065 11.5666 4.82049 9.9849 4.82049C8.4485 4.82049 7.4302 4.96093 6.93337 5.24236C6.43653 5.52491 6.18755 6.13868 6.18755 7.08369C6.18755 7.93917 6.40799 8.50315 6.84944 8.77283C7.16556 8.96474 7.58351 9.0772 8.10385 9.11077L9.29055 9.19469C11.8341 9.3631 13.4225 9.48228 14.0558 9.54998C16.0673 9.75252 17.5253 10.2874 18.43 11.1541C19.1417 11.8305 19.5664 12.7145 19.7018 13.8056C19.7812 14.4585 19.8204 15.1976 19.8204 16.0184C19.8204 17.9106 19.6397 19.296 19.2788 20.1738C18.6236 21.7852 17.1516 22.8029 14.8615 23.2304C13.902 23.4111 12.4344 23.5012 10.4599 23.5012C7.16444 23.5012 4.86824 23.3054 3.57131 22.9109C1.98008 22.4281 0.930454 21.4495 0.422985 19.9763C0.139876 19.1561 0 17.7898 0 15.8774H5.8843C5.8843 16.0906 5.88486 16.2539 5.88486 16.3664C5.88486 17.3869 6.17804 18.0427 6.76384 18.3353C7.16948 18.5367 7.65904 18.6425 8.23477 18.6553H10.3984C11.5023 18.6553 12.2067 18.5988 12.5105 18.4852C13.0515 18.2726 13.4068 17.9302 13.5763 17.4563C13.6664 17.1643 13.7112 16.7872 13.7112 16.325C13.7112 15.2905 13.3335 14.661 12.5793 14.435C12.2968 14.346 10.9853 14.2213 8.64321 14.064C6.76216 13.9298 5.45572 13.8005 4.72445 13.6752C2.79808 13.3149 1.51402 12.5735 0.873385 11.4484C0.309965 10.4927 0.0285347 9.04642 0.0285347 7.1111C0.0285347 5.63793 0.18072 4.45626 0.485089 3.56777C0.789459 2.67872 1.28014 2.00395 1.95714 1.54236C2.94914 0.833474 4.21866 0.417763 5.76344 0.293553C7.04918 0.181093 8.47536 0.124023 10.0442 0.124023C12.5139 0.124023 14.2741 0.266137 15.3231 0.547567C17.884 1.23576 19.1641 3.16269 19.1641 6.32947C19.1641 6.58908 19.1451 6.97738 19.107 7.4966Z" fill="#10298E"/>
<path d="M44.9834 23.5016V0.000244141H54.2023H55.6492H56.7677C58.3841 0.000244141 59.6172 0.131727 60.4649 0.395813C62.403 1.00287 63.7033 2.24665 64.3696 4.12546C64.7132 5.11187 64.8855 6.59679 64.8855 8.57967C64.8855 10.9637 64.6947 12.6764 64.317 13.7198C63.5611 15.7822 62.0057 16.9705 59.6564 17.2783C59.38 17.3247 58.2045 17.3655 56.1293 17.3991L55.0796 17.4338H51.3086V23.5016H44.9834ZM51.3086 11.982H55.2514C56.5019 11.9372 57.2623 11.841 57.5359 11.6905C57.9096 11.4852 58.1608 11.0734 58.2856 10.4562C58.3656 10.0456 58.4053 9.43459 58.4053 8.62331C58.4053 7.62907 58.3259 6.89221 58.1664 6.41103C57.9393 5.73683 57.3943 5.32672 56.5315 5.17733C56.3603 5.15495 55.9519 5.14264 55.3046 5.14264H51.3086V11.982Z" fill="#10298E"/>
<path d="M78.3867 19.4399H69.9298L68.7935 23.5014H62.2495L69.311 0H78.8522L85.9999 23.5014H79.5936L78.3867 19.4399ZM77.1306 14.8615L74.1669 4.67409L71.2911 14.8615H77.1306Z" fill="#10298E"/>
<path d="M36.2531 3.3064C38.8615 3.3064 41.1901 4.50821 42.7204 6.39038L44.0839 3.46697C41.9516 1.45164 39.0495 0.208984 35.8486 0.208984C30.8645 0.208984 26.6011 3.21911 24.8515 7.48029H22.1928L20.6228 10.8457H24.043C24.0173 11.1579 24.0005 11.4701 24.0005 11.789C24.0005 12.1745 24.0207 12.5561 24.0587 12.9327H22.3399L20.7705 16.2992H24.9332C26.7326 20.4524 30.9428 23.3679 35.8486 23.3679C38.321 23.3679 40.615 22.6272 42.5145 21.3616V17.2358C40.9848 18.9775 38.7474 20.0781 36.2531 20.0781C33.3375 20.0781 30.7728 18.5747 29.2794 16.2992H37.9954L39.5654 12.9327H27.9971C27.9372 12.5276 27.9053 12.1135 27.9053 11.6917C27.9053 11.4063 27.9198 11.1243 27.9478 10.8457H40.5383L42.1077 7.48029H29.0361C30.4818 4.98547 33.1719 3.3064 36.2531 3.3064Z" fill="#FFBE00"/>
<path d="M36.2532 3.40723C38.7391 3.40723 41.0678 4.5184 42.6422 6.45429L42.744 6.57962L42.8128 6.43358L44.1758 3.51018L44.206 3.4436L44.154 3.39324C41.9126 1.27496 38.9629 0.108398 35.8487 0.108398C33.4165 0.108398 31.0767 0.818968 29.0809 2.16345C27.1322 3.47605 25.6372 5.30171 24.7588 7.44181L24.8517 7.37915H22.1929H22.128L22.1011 7.43733L20.5317 10.8033L20.4646 10.9471H20.6229H24.0432L23.9425 10.8374C23.9139 11.1871 23.9 11.4976 23.9 11.7892C23.9 12.1668 23.9195 12.5557 23.9581 12.9428L24.0588 12.8321H22.3401H22.2763L22.2494 12.8903L20.6789 16.2562L20.6123 16.4H20.7706H24.9334L24.8405 16.339C26.717 20.6701 31.0381 23.4688 35.8487 23.4688C38.2602 23.4688 40.5838 22.77 42.5706 21.4462L42.6148 21.4165V21.3617V17.2359V16.9679L42.4385 17.1693C40.8714 18.9536 38.6171 19.9764 36.2532 19.9764C33.4725 19.9764 30.8971 18.5804 29.3635 16.2434L29.2796 16.4H37.9955H38.0604L38.0873 16.3424L39.6572 12.9753L39.7244 12.8321H39.5655H27.9972L28.0973 12.9182C28.0375 12.5104 28.0067 12.0986 28.0067 11.6918C28.0067 11.4148 28.0207 11.134 28.0487 10.8559L27.948 10.9471H40.5385H40.6034L40.6302 10.8889L42.1996 7.52294L42.2673 7.37915H42.1079H29.0362L29.1235 7.53077C30.5972 4.98727 33.3298 3.40723 36.2532 3.40723ZM29.0362 7.58113H42.1079L42.0161 7.43733L40.4473 10.8033L40.5385 10.7451H27.948H27.8568L27.8467 10.8363C27.8187 11.1205 27.8047 11.4087 27.8047 11.6918C27.8047 12.1081 27.8361 12.5311 27.897 12.9479L27.9105 13.034H27.9972H39.5655L39.4743 12.8903L37.9049 16.2562L37.9955 16.198H29.2796H29.0921L29.1951 16.3536C30.7656 18.7494 33.4048 20.1778 36.2532 20.1778C38.6748 20.1778 40.9849 19.1304 42.5907 17.3025L42.4134 17.2359V21.3617L42.4581 21.2783C40.5049 22.5792 38.2199 23.2668 35.8487 23.2668C31.1181 23.2668 26.8704 20.5157 25.0262 16.2585L24.9994 16.198H24.9334H20.7706L20.863 16.3424L22.4318 12.9753L22.3401 13.034H24.0588H24.1702L24.1596 12.9227C24.1215 12.5422 24.1014 12.1601 24.1014 11.7892C24.1014 11.5038 24.1154 11.1978 24.1439 10.8542L24.1528 10.7451H24.0432H20.6229L20.7141 10.8889L22.2841 7.52294L22.1929 7.58113H24.8517H24.9194L24.9445 7.51846C25.809 5.41529 27.2782 3.62152 29.194 2.33075C31.1556 1.00976 33.4574 0.310939 35.8487 0.310939C38.9114 0.310939 41.8108 1.45736 44.0147 3.54039L43.9923 3.42402L42.6299 6.34798L42.7994 6.32672C41.1852 4.34328 38.8001 3.20525 36.2532 3.20525C33.2571 3.20525 30.459 4.82389 28.9483 7.4295L28.8605 7.58113H29.0362Z" fill="#10298E"/>
</svg>
