<svg width="40" height="25" viewBox="0 0 40 25" fill="none" xmlns="http://www.w3.org/2000/svg">
<path d="M40 0H0V3.56727H40V0Z" fill="#1A1D71"/>
<path d="M40 21.2178H0V24.785H40V21.2178Z" fill="#F4B908"/>
<path d="M16.0116 7.49649L11.8756 17.3194H9.18204L7.15024 9.48693C7.13117 9.30411 7.06556 9.12922 6.95966 8.97898C6.85377 8.82873 6.71113 8.70814 6.54536 8.62871C5.7431 8.24865 4.89765 7.96741 4.02759 7.79118L4.08963 7.50683H8.44274C8.7263 7.50685 9.0006 7.60777 9.21657 7.79153C9.43253 7.97529 9.57607 8.2299 9.62149 8.50981L10.6917 14.1968L13.349 7.52234L16.0116 7.49649ZM26.5686 14.1037C26.5686 11.5187 22.9496 11.3688 23.0013 10.2159C23.0013 9.86433 23.3426 9.4921 24.0819 9.39387C24.9436 9.31377 25.8111 9.46549 26.5945 9.83332L27.0443 7.76533C26.28 7.48048 25.4713 7.33344 24.6557 7.33105C22.138 7.33105 20.3647 8.6649 20.3492 10.5726C20.3492 11.984 21.6158 12.7699 22.5774 13.2403C23.539 13.7108 23.9061 14.0262 23.9009 14.4553C23.9009 15.117 23.1099 15.4065 22.3758 15.4169C21.4648 15.4396 20.5635 15.2258 19.7598 14.7965L19.2997 16.9368C20.2062 17.2813 21.1682 17.4565 22.138 17.4538C24.816 17.4538 26.5686 16.1355 26.5738 14.0985L26.5686 14.1037ZM33.2327 17.2987H35.585L33.5171 7.47581H31.3508C31.1181 7.47338 30.89 7.54114 30.6964 7.67025C30.5027 7.79936 30.3524 7.98383 30.2651 8.19961L26.4394 17.2832H29.1226L29.6396 15.8201H32.907L33.2327 17.2987ZM30.3892 13.8245L31.7076 10.1487L32.4831 13.8297L30.3892 13.8245ZM19.6564 7.49649L17.547 17.3194H14.9931L17.1024 7.49649H19.6564Z" fill="#1A1D71"/>
</svg>
