<svg width="50" height="32" viewBox="0 0 50 32" fill="none" xmlns="http://www.w3.org/2000/svg">
<path d="M48.7128 0H1.28718C0.575425 0 0 0.559911 0 1.25055V30.2301C0 30.9207 0.575425 31.4815 1.28718 31.4815H48.7128C49.4246 31.4815 50 30.9216 50 30.2309V1.25055C50 0.559911 49.4246 0 48.7128 0ZM32.5611 17.1483H38.1772V18.4607H34.1262V20.0201H37.847V21.3308H34.1262V23.2531H38.3569V24.5647H32.5611V17.1483ZM29.4255 9.30692C29.6335 9.06007 29.7557 8.77969 29.8929 8.51822C30.0425 8.2602 30.1319 7.9953 30.2063 7.74587C30.2771 7.49645 30.3824 7.27025 30.409 7.05867C30.4435 6.84623 30.4754 6.66131 30.4984 6.50908C30.5498 6.20031 30.5781 6.024 30.5781 6.024C30.5781 6.024 30.5896 6.20203 30.6082 6.51338C30.6188 6.67077 30.6285 6.86343 30.6436 7.08275C30.6631 7.30465 30.6135 7.54978 30.5958 7.825C30.5763 8.10023 30.5453 8.40039 30.4488 8.70658C30.3674 9.01621 30.2983 9.35594 30.1354 9.67417C30.0646 9.83931 29.9903 10.0062 29.915 10.1756C29.8345 10.3433 29.7229 10.4955 29.6255 10.659C29.4343 10.9944 29.1847 11.292 28.9271 11.5904C28.6783 11.9001 28.3684 12.1426 28.0869 12.417C27.7744 12.6449 27.4796 12.9072 27.1601 13.0938C26.8476 13.2985 26.5377 13.4835 26.2314 13.6366C25.9304 13.806 25.6303 13.9247 25.3568 14.052C24.9327 14.2266 24.5574 14.3625 24.2466 14.4605C24.3874 14.7701 24.5096 15.0927 24.6034 15.4376C24.699 15.7928 24.7858 16.1557 24.807 16.5703C24.3909 16.4705 24.0413 16.3183 23.7022 16.1583C23.3631 15.9958 23.0515 15.8117 22.7603 15.6139C22.1742 15.2191 21.6696 14.7572 21.2093 14.261C20.8605 13.8843 20.8136 13.3467 21.0526 12.927L21.1022 12.8436C21.4899 12.1684 21.9556 11.538 22.5266 10.9695C22.809 10.6839 23.1215 10.4164 23.4685 10.1679C23.6464 10.0449 23.8288 9.92617 24.0182 9.81178C24.2139 9.70083 24.4219 9.59676 24.6494 9.50473C24.6724 9.74212 24.6769 9.97004 24.6645 10.1894C24.6494 10.4061 24.6273 10.6185 24.6007 10.8284C24.537 11.2421 24.4405 11.636 24.3121 12.0127C24.298 12.0532 24.2812 12.091 24.2679 12.1314C24.4033 12.1116 24.545 12.0893 24.6981 12.0626C24.938 12.0058 25.2098 11.9646 25.4807 11.8786C25.7613 11.8089 26.0464 11.7134 26.335 11.6016C26.6377 11.5053 26.9069 11.3453 27.2141 11.2154C27.4805 11.0434 27.7966 10.8998 28.048 10.6916C28.3144 10.4938 28.5836 10.2926 28.7987 10.0483C28.912 9.92961 29.0413 9.82038 29.1404 9.69481C29.2351 9.56494 29.3298 9.43679 29.4255 9.30692ZM19.1439 10.2212C19.1723 9.94596 19.2112 9.64751 19.3175 9.3439C19.4086 9.03685 19.4874 8.6997 19.6601 8.38577C19.7371 8.22408 19.815 8.05808 19.8955 7.89123C19.9814 7.72695 20.0983 7.57816 20.201 7.41732C20.401 7.08705 20.6613 6.79721 20.9278 6.5065C21.1854 6.20289 21.5041 5.97067 21.7936 5.70404C22.1114 5.48558 22.4141 5.23272 22.739 5.05469C23.0577 4.85859 23.3729 4.68227 23.6845 4.53864C23.9899 4.37866 24.2944 4.26857 24.5715 4.14902C25 3.98733 25.3807 3.86176 25.694 3.77231C25.563 3.45924 25.4506 3.13327 25.3665 2.7858C25.2815 2.428 25.2063 2.06247 25.1974 1.64705C25.6091 1.75886 25.9552 1.92228 26.2898 2.09171C26.6236 2.26373 26.929 2.45553 27.2141 2.66367C27.7877 3.07564 28.2782 3.55213 28.7234 4.06129C29.0607 4.44747 29.0899 4.98674 28.8385 5.39872L28.7872 5.48129C28.3773 6.14527 27.8913 6.76108 27.3052 7.31325C27.0131 7.59106 26.6909 7.84994 26.3385 8.08819C26.157 8.2043 25.9703 8.31783 25.7764 8.42706C25.5772 8.53285 25.3665 8.63003 25.1363 8.71604C25.1213 8.47694 25.1239 8.24902 25.1416 8.03056C25.1647 7.81382 25.193 7.60224 25.2266 7.39324C25.3036 6.98212 25.4116 6.59079 25.5515 6.21751C25.5666 6.17795 25.5834 6.14011 25.5993 6.10054C25.463 6.11602 25.3214 6.13409 25.1673 6.15645C24.9256 6.20633 24.6521 6.24073 24.3785 6.31814C24.0961 6.38007 23.8093 6.46693 23.5163 6.57014C23.21 6.65701 22.9356 6.80925 22.6248 6.93052C22.3513 7.09479 22.0343 7.22983 21.775 7.43022C21.5032 7.62116 21.2288 7.81382 21.0048 8.05206C20.8906 8.16731 20.7578 8.27224 20.6542 8.39609C20.5551 8.52252 20.4568 8.64896 20.3603 8.77281C20.1452 9.01363 20.0142 9.29058 19.869 9.5486C19.7087 9.80146 19.6131 10.0638 19.5299 10.3115C19.4511 10.5583 19.3396 10.782 19.3059 10.9927C19.2652 11.2034 19.2289 11.3874 19.1997 11.5388C19.1404 11.8467 19.1068 12.0222 19.1068 12.0222C19.1068 12.0222 19.1006 11.8442 19.0899 11.5319C19.0855 11.3737 19.0793 11.1819 19.0722 10.9617C19.0581 10.7398 19.1165 10.4964 19.1439 10.2212ZM14.5405 26.1731H13.441V29.0776H12.6841V26.1731H11.5864V25.5478H14.5414L14.5405 26.1731ZM13.4003 24.5647L11.242 17.1465H12.9417C13.92 21.2087 14.0174 21.7247 14.1555 22.5711H14.1767C14.3148 21.7961 14.4308 21.0418 15.2399 17.1465H16.9308C17.8231 21.219 17.8993 21.6112 18.0683 22.5711H18.0896C18.2171 21.8684 18.3437 21.2276 19.3343 17.1465H20.9508L18.8013 24.5647H17.2707C16.4837 20.9283 16.3438 20.205 16.0898 18.779H16.0694C15.8339 20.2058 15.7082 20.7417 14.8885 24.5647H13.4003ZM17.1964 29.075C17.1459 28.909 17.1167 28.7275 17.1167 28.3628C17.1167 27.8829 17.0857 27.6946 16.5235 27.6946H15.7401V29.0758H14.9947V25.5452H16.8325C17.7992 25.5452 17.9754 26.2402 17.9754 26.5446C17.9754 26.9334 17.7727 27.2671 17.4132 27.3858C17.7116 27.5122 17.8745 27.6214 17.8745 28.2803C17.8745 28.7955 17.8745 28.9245 18.0356 28.9821L18.0365 29.075H17.1964ZM20.8941 29.0776L20.6604 28.3499H19.3201L19.0678 29.0776H18.2675L19.5627 25.5478H20.4391L21.7183 29.0776H20.8941ZM21.7962 17.1465H23.3906V24.5647H21.7962V17.1465ZM24.3732 29.0776L22.8913 26.561H22.8807V29.0776H22.1733V25.5478H22.9718L24.4157 28.005H24.4246V25.5478H25.1328L25.1337 29.0776H24.3732ZM27.2326 29.1722C25.9065 29.1722 25.6799 28.4291 25.6799 27.9921H26.4058C26.4111 28.1891 26.5129 28.5624 27.1769 28.5624C27.5345 28.5624 27.9356 28.4789 27.9356 28.1057C27.9356 27.8296 27.6629 27.7565 27.2769 27.6679L26.8883 27.5793C26.3005 27.4468 25.7348 27.3187 25.7348 26.5412C25.7348 26.1481 25.9508 25.4549 27.13 25.4549C28.2436 25.4549 28.5411 26.1628 28.5464 26.5954H27.8205C27.7975 26.4388 27.739 26.0647 27.0751 26.0647C26.7882 26.0647 26.4421 26.1671 26.4421 26.487C26.4421 26.7631 26.6758 26.8216 26.8281 26.856L27.7116 27.0676C28.2091 27.1862 28.6641 27.3832 28.6641 28.0162C28.6641 29.0776 27.5505 29.1722 27.2326 29.1722ZM28.0914 21.6611H26.4439V24.5647H24.8787V17.1457H28.7376C30.7693 17.1457 31.1429 18.6027 31.1429 19.2434C31.1429 20.0605 30.718 20.7623 29.9619 21.01C30.5896 21.2792 30.9295 21.508 30.9295 22.8919C30.9295 23.9764 30.9295 24.2456 31.2704 24.3686V24.5647H29.5069C29.4007 24.2138 29.3369 23.8319 29.3369 23.0665C29.3369 22.0542 29.2723 21.662 28.0914 21.6611ZM31.829 26.1731H30.0035V26.9695H31.6014V27.5939H30.0035V29.0784H29.2449V25.5487H31.829V26.1731ZM35.0974 29.0758H32.3398V25.5452H35.0115V26.1714H33.0834V26.9136H34.8539V27.538H33.0834V28.4523H35.0974V29.0758ZM38.7589 29.0758H37.9205C37.87 28.909 37.8408 28.7275 37.8408 28.3628C37.8408 27.8829 37.8081 27.6946 37.2477 27.6946H36.4642V29.0758H35.7188V25.5452H37.5549C38.5216 25.5452 38.6995 26.2402 38.6995 26.5446C38.6995 26.9334 38.4942 27.2671 38.1365 27.3858C38.434 27.5122 38.5977 27.6214 38.5977 28.2803C38.5977 28.7955 38.5977 28.9245 38.758 28.9821H38.7589V29.0758Z" fill="#1B1B1B"/>
<path d="M28.4322 18.4289H26.4457V20.4122H28.3145C29.1449 20.4122 29.5494 20.1335 29.5494 19.3999C29.5494 19.0078 29.3697 18.4289 28.4322 18.4289Z" fill="#1B1B1B"/>
<path d="M37.407 26.1585H36.4633V27.1028H37.3522C37.7478 27.1028 37.9399 26.9697 37.9399 26.6205C37.9399 26.4329 37.8541 26.1585 37.407 26.1585Z" fill="#1B1B1B"/>
<path d="M16.6847 26.1585H15.7392V27.1028H16.6281C17.0238 27.1028 17.2159 26.9705 17.2159 26.6205C17.2159 26.4329 17.1291 26.1585 16.6847 26.1585Z" fill="#1B1B1B"/>
<path d="M19.9964 26.3452H19.9894L19.5228 27.7411H20.4497L19.9964 26.3452Z" fill="#1B1B1B"/>
</svg>
