<svg width="100" height="23" viewBox="0 0 100 23" fill="none" xmlns="http://www.w3.org/2000/svg">
<path d="M4.03014 18.5967V12.5574L0 1.7443H2.02684L4.99745 10.0871L8.41541 0H10.2774L5.88628 12.6339V18.5967H4.03014Z" fill="#FF0000"/>
<path d="M15.9832 18.5966H14.4273C14.3456 18.2879 14.2904 17.9728 14.2625 17.6547H14.1447C13.8942 18.0063 13.5612 18.2911 13.175 18.484C12.7888 18.6769 12.3611 18.7722 11.9295 18.7614C10.2323 18.7614 9.07666 17.488 9.07666 15.155C9.07666 12.6043 10.3736 11.0072 13.6974 11.0072H13.9564V10.3008C13.9564 8.74489 13.4364 8.08366 12.4004 8.08366C11.4567 8.08366 10.6561 8.58007 10.0459 9.12161L9.68883 7.49503C10.506 6.88479 11.4983 6.55449 12.5182 6.55323C14.6156 6.55323 15.7713 7.44794 15.7713 10.3244V15.9104C15.7712 16.81 15.8421 17.7081 15.9832 18.5966ZM13.9564 12.3983H13.7445C11.4567 12.3983 10.9622 13.4107 10.9622 14.949C10.9622 16.3225 11.4096 17.2113 12.3534 17.2113C12.6762 17.1933 12.9902 17.0985 13.269 16.9346C13.5478 16.7708 13.7835 16.5428 13.9564 16.2695V12.3983ZM19.8956 18.5966H18.0513V6.6945H19.8898V7.73048H20.0075C20.2882 7.37734 20.6421 7.08924 21.0448 6.886C21.4476 6.68277 21.8896 6.56924 22.3404 6.55323C23.8963 6.55323 24.7204 7.4244 24.7204 9.23933V18.5966H22.8604V9.40415C22.8604 8.50944 22.4581 8.20139 21.7518 8.20139C20.9669 8.20139 20.3136 8.79001 19.8898 9.37864L19.8956 18.5966ZM26.5412 13.1027C26.5412 8.69583 28.1914 6.55127 30.5733 6.55127C31.1087 6.54869 31.633 6.70432 32.0802 6.99862V1.74414H33.9187V18.5966H32.5452L32.404 17.6547H32.2863C31.7663 18.314 31.109 18.7614 30.1397 18.7614C27.8146 18.7614 26.5412 16.7816 26.5412 13.1047V13.1027ZM32.0802 8.63305C31.9036 8.4435 31.6879 8.29462 31.448 8.19671C31.2082 8.0988 30.9499 8.0542 30.6911 8.066C29.2058 8.066 28.4975 10.3067 28.4975 12.7338C28.4975 15.5141 29.0174 17.2113 30.3614 17.2113C30.7048 17.2261 31.0458 17.1479 31.3483 16.9849C31.6509 16.8219 31.9038 16.5801 32.0802 16.2852V8.63305ZM39.7187 18.7673C37.266 18.7673 35.7572 16.8052 35.7572 13.1576C35.7572 9.3394 36.8187 6.55912 39.34 6.55912C41.3197 6.55912 42.6167 8.04246 42.6167 12.0726V13.087H37.6722C37.6722 15.7731 38.4276 17.1878 39.8894 17.1878C40.7092 17.167 41.5013 16.8867 42.1517 16.3872L42.5774 17.796C41.7651 18.4392 40.7546 18.7804 39.7187 18.7614V18.7673ZM37.6918 11.5762H40.7311C40.7311 9.54934 40.4015 8.06404 39.34 8.06404C38.2098 8.06012 37.8076 9.45124 37.6918 11.5762ZM50.6063 6.72197L48.3911 12.2806L50.8653 18.5966H48.9582L47.1177 13.6913L45.3263 18.5966H43.5133L45.9875 12.4454L43.7547 6.71805H45.6638L47.1962 11.0346L48.8208 6.71805L50.6063 6.72197Z" fill="black"/>
<path d="M57.2165 7.06341L56.7221 18.5887H55.7567L56.4866 1.73633H57.7816L60.3048 12.1354C60.4945 12.902 60.6257 13.6819 60.6973 14.4683H60.7443C60.8271 13.6812 60.9688 12.9014 61.1682 12.1354L63.7679 1.74418H65.0865L65.8183 18.5966H64.6862L64.1917 6.97708C64.1211 5.65659 64.1447 4.64219 64.1447 3.6062H64.074C63.9489 4.63069 63.7602 5.6464 63.5089 6.64745L61.1544 15.9576H60.2362L57.9013 6.64745C57.6417 5.65726 57.4599 4.64828 57.3578 3.62975H57.293C57.293 4.54801 57.2636 5.91559 57.2165 7.06341Z" fill="black"/>
<path d="M67.6608 12.7278C67.6608 8.76827 69.2403 6.48047 71.2906 6.48047C73.341 6.48047 74.9205 8.50927 74.9205 12.5865C74.9205 16.5225 73.3508 18.8318 71.2906 18.8318C69.2304 18.8318 67.6608 16.7815 67.6608 12.7278ZM73.8139 12.6571C73.8139 8.92916 72.6818 7.40069 71.2906 7.40069C69.8995 7.40069 68.7693 9.05081 68.7693 12.6571C68.7693 16.3576 69.8995 17.9371 71.2906 17.9371C72.6818 17.9371 73.8139 16.2399 73.8139 12.6571Z" fill="black"/>
<path d="M78.0579 9.92201V18.5964H76.9493V6.71791H77.9637L78.0108 8.68H78.0579C78.3876 7.80098 79.3294 6.47461 80.9324 6.47461C82.5354 6.47461 83.4321 7.45566 83.4321 9.35104V18.5964H82.3235V9.49819C82.3235 8.08353 81.8055 7.42426 80.7205 7.42426C79.5413 7.42426 78.6465 8.41512 78.0579 9.92201Z" fill="black"/>
<path d="M89.0672 17.8665C90.6369 17.8665 91.4708 16.5931 91.4708 16.5931L91.8239 17.4878C91.4984 17.9145 91.0772 18.2587 90.5943 18.4928C90.1114 18.727 89.5803 18.8444 89.0437 18.8358C86.5283 18.8358 85.3667 16.546 85.3667 12.6572C85.3667 8.7683 86.8265 6.47461 88.8318 6.47461C90.8821 6.47461 92.2007 8.63291 91.8259 12.8455H86.4498C86.4969 16.0987 87.3465 17.8665 89.0672 17.8665ZM86.4733 11.9685H90.7899C90.9861 8.81146 90.0345 7.39679 88.8278 7.39679C87.5819 7.40072 86.5675 9.00375 86.4733 11.9685Z" fill="black"/>
<path d="M93.5702 22.3203L93.4525 21.2824C93.6898 21.3478 93.9344 21.3828 94.1804 21.3864C94.9829 21.3864 95.5539 20.6015 95.9012 19.2889L95.9954 18.9357L93.0522 6.72758H94.1589L96.0444 14.4818C96.2551 15.3646 96.4188 16.2579 96.535 17.1581H96.6056C96.7684 16.2163 96.9588 15.3431 97.1707 14.472L99.0092 6.71777H100L96.9647 19.2085C96.5624 20.8115 95.8561 22.3674 94.1824 22.3674C93.9775 22.3672 93.7728 22.3515 93.5702 22.3203Z" fill="black"/>
</svg>
